<?xml version="1.0" encoding="UTF-8" standalone="no"?>
<svg
   xmlns:dc="http://purl.org/dc/elements/1.1/"
   xmlns:cc="http://creativecommons.org/ns#"
   xmlns:rdf="http://www.w3.org/1999/02/22-rdf-syntax-ns#"
   xmlns:svg="http://www.w3.org/2000/svg"
   xmlns="http://www.w3.org/2000/svg"
   xmlns:sodipodi="http://sodipodi.sourceforge.net/DTD/sodipodi-0.dtd"
   xmlns:inkscape="http://www.inkscape.org/namespaces/inkscape"
   width="61.765129mm"
   height="61.765125mm"
   viewBox="0 0 61.765129 61.765125"
   version="1.1"
   id="svg8"
   sodipodi:docname="constelação desenho.svg"
   inkscape:version="1.0.1 (3bc2e813f5, 2020-09-07)">
  <defs
     id="defs2" />
  <sodipodi:namedview
     id="base"
     pagecolor="#ffffff"
     bordercolor="#666666"
     borderopacity="1.0"
     inkscape:pageopacity="0.0"
     inkscape:pageshadow="2"
     inkscape:zoom="1.4"
     inkscape:cx="143.01405"
     inkscape:cy="109.98839"
     inkscape:document-units="mm"
     inkscape:current-layer="layer1"
     inkscape:document-rotation="0"
     showgrid="false"
     inkscape:window-width="1366"
     inkscape:window-height="738"
     inkscape:window-x="0"
     inkscape:window-y="0"
     inkscape:window-maximized="0" />
  <metadata
     id="metadata5">
    <rdf:RDF>
      <cc:Work
         rdf:about="">
        <dc:format>image/svg+xml</dc:format>
        <dc:type
           rdf:resource="http://purl.org/dc/dcmitype/StillImage" />
      </cc:Work>
    </rdf:RDF>
  </metadata>
  <g
     inkscape:label="Layer 1"
     inkscape:groupmode="layer"
     id="layer1"
     transform="translate(-8.4269591,-181.54006)">
    <path
       style="fill:#000000;stroke-width:0.108631"
       d="m 3.7050742,241.79778 v -1.05504 h 25.1664188 25.16642 v 1.05504 1.05506 H 28.871493 3.7050742 Z m 30.1857528,0.59903 c 0.108592,0.0268 0.262919,-0.0258 0.343056,-0.11689 0.202415,-0.23006 0.675094,-0.21695 0.686375,0.019 0.0066,0.14706 0.0218,0.15244 0.07266,0.0264 0.03513,-0.0871 0.119293,-0.19315 0.186918,-0.23578 0.08508,-0.0536 0.07992,-0.078 -0.01678,-0.0791 -0.08613,-9.5e-4 -0.140971,-0.15347 -0.142821,-0.39725 l -0.0027,-0.39565 -0.310201,0.35272 c -0.275021,0.31271 -0.326766,0.33388 -0.456246,0.18674 -0.08032,-0.0914 -0.266539,-0.15658 -0.413812,-0.14507 -0.24959,0.0195 -0.266751,0.0605 -0.252549,0.60454 0.008,0.321 0.03633,0.48196 0.06209,0.35767 0.0321,-0.15478 0.10912,-0.21065 0.244239,-0.17731 z m -0.150801,-0.17238 c -0.106739,-0.16299 0.04928,-0.55088 0.202204,-0.50279 0.169044,0.0532 0.169665,0.52098 7.79e-4,0.57407 -0.07121,0.0225 -0.162585,-0.01 -0.202957,-0.0713 z m 0.947711,-0.42665 c 0.06579,-0.11601 0.143112,-0.211 0.171713,-0.211 0.02854,0 0.05205,0.0949 0.05205,0.211 0,0.11938 -0.07464,0.21102 -0.171713,0.21102 -0.137061,0 -0.14755,-0.0427 -0.05205,-0.21102 z m -17.541418,0.45843 c 0.397149,-0.33903 0.146599,-0.98594 -0.381851,-0.98594 -0.31921,0 -0.643959,0.29706 -0.643959,0.58909 0,0.50548 0.618328,0.7447 1.02581,0.39685 z m -0.718221,-0.0448 c -0.274073,-0.15058 -0.248956,-0.59028 0.04211,-0.73723 0.335764,-0.1695 0.768807,0.0294 0.768807,0.35305 0,0.43949 -0.381375,0.62017 -0.810917,0.38418 z m 0.558499,-0.20256 c 0.04047,-0.13999 0.0324,-0.1401 -0.06996,-8.5e-4 -0.0886,0.1205 -0.146488,0.12835 -0.247068,0.0335 -0.1919,-0.18101 -0.03326,-0.49278 0.206876,-0.40655 0.150372,0.054 0.164626,0.0413 0.0625,-0.0558 -0.195155,-0.18557 -0.482884,-0.0362 -0.482884,0.25058 0,0.13722 0.0353,0.28278 0.07843,0.32346 0.124592,0.11751 0.402015,0.029 0.452104,-0.14431 z m 1.820573,0.26122 c 0.07782,-0.0885 0.108631,-0.1918 0.06846,-0.22969 -0.04015,-0.0378 -0.136744,0.0133 -0.214628,0.11377 -0.260148,0.3356 -0.725631,-0.0383 -0.581389,-0.46695 0.07863,-0.23368 0.389679,-0.35368 0.542681,-0.20936 0.180558,0.17031 0.338371,0.12772 0.182627,-0.0493 -0.16726,-0.1901 -0.574633,-0.20706 -0.760585,-0.0316 -0.07382,0.0696 -0.134221,0.27379 -0.134221,0.45368 0,0.17988 0.0604,0.38403 0.134221,0.45365 0.186934,0.17635 0.593639,0.15811 0.762829,-0.0342 z m 1.010051,-0.25121 c -0.05445,-0.31599 -0.111314,-0.37928 -0.340778,-0.37928 -0.237578,0 -0.279805,0.054 -0.307349,0.39249 -0.03114,0.38272 -0.02266,0.39217 0.340776,0.37928 0.363592,-0.0128 0.371108,-0.0225 0.307351,-0.39249 z m -0.564892,0.21229 c 0,-0.10695 0.340674,-0.25264 0.418686,-0.17905 0.02811,0.0266 0.01794,0.0988 -0.0226,0.16074 -0.08924,0.13619 -0.396078,0.15038 -0.396078,0.0183 z m 0.08948,-0.45441 c 0.104386,-0.0985 0.164048,-0.0985 0.268443,0 0.104385,0.0984 0.07456,0.1266 -0.134222,0.1266 -0.208787,0 -0.238614,-0.0282 -0.134221,-0.1266 z m 0.978419,0.017 c 0.17488,-0.13691 0.222391,-0.0715 0.309519,0.42617 0.02766,0.158 0.05229,0.0832 0.06141,-0.1863 0.01482,-0.4379 0.0062,-0.44944 -0.320319,-0.42595 -0.316344,0.0227 -0.334594,0.0485 -0.318795,0.45005 0.01189,0.30259 0.03003,0.34416 0.06256,0.14354 0.02519,-0.15532 0.117721,-0.33871 0.205621,-0.40751 z m 1.932277,0.34424 c 0.02816,-0.18725 -0.03961,-0.26509 -0.307589,-0.35322 -0.189047,-0.0622 -0.343721,-0.15305 -0.343721,-0.20196 0,-0.15958 0.240165,-0.2336 0.367667,-0.11328 0.151654,0.14304 0.303438,0.15256 0.303438,0.019 0,-0.14246 -0.410086,-0.24352 -0.671105,-0.16538 -0.369625,0.11066 -0.273569,0.44288 0.167776,0.58029 0.215313,0.0671 0.391478,0.16567 0.391478,0.21918 0,0.0536 -0.02105,0.0974 -0.04678,0.0974 -0.02572,0 -0.119901,0.0264 -0.209281,0.0588 -0.08937,0.0323 -0.244491,-0.0186 -0.344699,-0.11301 -0.15425,-0.1455 -0.182198,-0.14778 -0.182198,-0.0148 0,0.36524 0.81995,0.3532 0.87501,-0.0128 z M 22.75862,241.949 c -0.0094,-0.26517 -0.04985,-0.5131 -0.08996,-0.55094 -0.137461,-0.12968 -0.235461,0.17916 -0.192305,0.60602 0.06067,0.60021 0.303721,0.55279 0.282275,-0.055 z m 0.856918,0.3225 c 0.124696,-0.14172 0.154986,-0.14045 0.272753,0.0112 0.156157,0.20145 0.522806,0.16305 0.601983,-0.0631 0.04696,-0.13413 0.02779,-0.13675 -0.125648,-0.0173 -0.218325,0.16997 -0.414566,0.0782 -0.414566,-0.19372 0,-0.27198 0.196241,-0.36368 0.414566,-0.19371 0.153445,0.1195 0.172612,0.11676 0.125648,-0.0173 -0.07917,-0.22609 -0.445826,-0.26449 -0.601983,-0.0631 -0.117773,0.15193 -0.148062,0.1532 -0.272753,0.0112 -0.333421,-0.37896 -0.852881,-0.0283 -0.662522,0.44722 0.109028,0.27237 0.455597,0.31316 0.662522,0.078 z m -0.516266,-0.0956 c -0.09258,-0.22756 0.03623,-0.51107 0.207706,-0.45715 0.07686,0.0242 0.139754,0.15472 0.139754,0.29013 0,0.28915 -0.249064,0.4089 -0.34746,0.16702 z m 2.078097,0.0594 c 0.239551,0.2712 0.296678,0.1994 0.107137,-0.13466 -0.08708,-0.15349 -0.08336,-0.25202 0.0137,-0.36233 0.07701,-0.0875 0.08607,-0.15152 0.02145,-0.15152 -0.06152,0 -0.18093,0.0789 -0.265361,0.1754 -0.137649,0.15729 -0.160653,0.13821 -0.222672,-0.18463 -0.05392,-0.28074 -0.07085,-0.22063 -0.07679,0.27299 -0.0059,0.49683 0.01505,0.57961 0.0978,0.38475 l 0.105439,-0.24829 z m 1.121558,-0.0612 c 0,-0.20165 0.066,-0.26392 0.307589,-0.29013 0.24409,-0.0266 0.307589,-0.0878 0.307589,-0.29715 0,-0.22864 -0.05587,-0.26812 -0.419441,-0.2965 l -0.419439,-0.0328 v 0.58665 c 0,0.32265 0.05033,0.58664 0.111854,0.58664 0.06152,0 0.111856,-0.11552 0.111856,-0.25675 z m 0,-0.58728 c 0,-0.1737 0.05796,-0.21792 0.251664,-0.19197 0.138415,0.0186 0.251664,0.10491 0.251664,0.19197 0,0.0871 -0.113255,0.17344 -0.251664,0.19198 -0.193692,0.0259 -0.251664,-0.0184 -0.251664,-0.19198 z m 1.056923,0.38815 c 0.09196,-0.39195 0.322871,-0.30881 0.410375,0.14776 0.06856,0.35774 0.06929,0.35696 0.08389,-0.0875 0.01339,-0.40816 -0.0097,-0.44839 -0.256704,-0.44839 -0.164445,0 -0.291585,-0.0728 -0.322576,-0.18464 -0.02814,-0.10157 -0.05301,0.10017 -0.0553,0.4484 -0.0042,0.64173 0.01494,0.65871 0.140312,0.12436 z m 1.447724,0.2185 c 0.158402,-0.23835 -0.02868,-0.5407 -0.363636,-0.58769 -0.292614,-0.0411 -0.493997,0.35295 -0.330614,0.64685 0.129346,0.23265 0.522588,0.19915 0.69425,-0.0592 z m -0.559167,-0.0175 c -0.09258,-0.22757 0.03624,-0.51107 0.207705,-0.45715 0.07686,0.0242 0.139754,0.15472 0.139754,0.29012 0,0.28916 -0.249063,0.40891 -0.347459,0.16703 z m 1.001554,-0.22694 c -0.0093,-0.26516 -0.04984,-0.5131 -0.08996,-0.55094 -0.137463,-0.12967 -0.235461,0.17917 -0.192306,0.60603 0.06067,0.60021 0.30372,0.55278 0.282275,-0.055 z m 0.899816,0.24454 c 0.08904,-0.13398 0.08904,-0.2353 0,-0.36927 -0.313582,-0.47187 -0.99026,-0.0894 -0.711397,0.40205 0.146125,0.25756 0.530225,0.23984 0.711397,-0.0328 z m -0.559161,-0.0176 c -0.09258,-0.22757 0.03624,-0.51107 0.207703,-0.45715 0.07688,0.0242 0.139756,0.15472 0.139756,0.29012 0,0.28916 -0.249062,0.40891 -0.347459,0.16703 z m 2.845566,0.044 c 0.0465,-0.1341 0.02734,-0.13675 -0.126162,-0.0173 -0.21832,0.16997 -0.414566,0.0782 -0.414566,-0.19371 0,-0.27199 0.196246,-0.36369 0.414566,-0.19372 0.153443,0.1195 0.172691,0.11676 0.126162,-0.0173 -0.08693,-0.25044 -0.50811,-0.2546 -0.648936,-0.006 -0.170273,0.3001 0.04029,0.66379 0.358683,0.61944 0.129466,-0.0181 0.260054,-0.10404 0.290253,-0.19104 z m 0.891856,-0.0226 c 0.02431,-0.12075 -0.05892,-0.2034 -0.249933,-0.24864 -0.157459,-0.0373 -0.257239,-0.11214 -0.221729,-0.16631 0.03553,-0.0542 0.1673,-0.0678 0.292868,-0.0302 0.152228,0.0456 0.202798,0.0294 0.151766,-0.0485 -0.114934,-0.17541 -0.508138,-0.14048 -0.586478,0.0521 -0.06262,0.15379 0.05919,0.28924 0.355368,0.39521 0.06157,0.022 0.0753,0.0771 0.03065,0.12225 -0.04465,0.0453 -0.157908,0.0221 -0.251665,-0.0513 -0.141301,-0.11067 -0.170483,-0.10297 -0.170483,0.0447 0,0.24578 0.599132,0.18172 0.649623,-0.0694 z m 2.728305,-0.0344 c 0.240843,-0.4986 -0.244756,-1.14702 -0.604721,-0.80748 -0.124709,0.11764 -0.150893,0.78986 -0.03738,0.96299 0.136651,0.20857 0.509986,0.11813 0.642173,-0.15551 z m -0.531706,-0.0861 c -0.08746,-0.32894 0.03738,-0.72617 0.211213,-0.67153 0.173061,0.0545 0.168358,0.83789 -0.0053,0.89251 -0.07465,0.0234 -0.167261,-0.076 -0.20585,-0.22098 z m 2.076501,0.27596 -0.390179,-0.0445 0.390179,-0.30255 c 0.326515,-0.25317 0.369953,-0.33356 0.266156,-0.49259 -0.172347,-0.26404 -0.644656,-0.2498 -0.695399,0.021 -0.03858,0.2059 -0.03567,0.20615 0.121275,0.01 0.150694,-0.18808 0.418488,-0.1621 0.418488,0.0406 0,0.0501 -0.154869,0.23725 -0.344152,0.4158 -0.23844,0.22491 -0.452242,0.32464 -0.696033,0.32464 h -0.351867 l 0.369226,-0.31812 c 0.381592,-0.32876 0.407709,-0.4891 0.108592,-0.66706 -0.230751,-0.1373 -0.539829,-0.0167 -0.539829,0.21073 0,0.16565 0.01334,0.16451 0.1508,-0.0128 0.157802,-0.20354 0.408449,-0.14489 0.408449,0.0956 0,0.0769 -0.125898,0.21767 -0.279632,0.31273 -0.153786,0.0951 -0.279617,0.24294 -0.279617,0.32864 0,0.12548 0.168819,0.15254 0.866834,0.13893 0.476775,-0.009 0.691264,-0.0369 0.476669,-0.0613 z m 1.113161,-0.0753 c 0.07438,-0.0845 0.09565,-0.21387 0.04743,-0.28749 -0.04822,-0.0736 -0.09036,-0.25374 -0.09353,-0.40028 -0.0053,-0.21196 -0.06262,-0.2664 -0.283911,-0.2664 -0.19034,0 -0.29057,0.0665 -0.317639,0.21102 l -0.0395,0.21101 0.170299,-0.21101 c 0.14088,-0.17456 0.195744,-0.18701 0.317639,-0.072 0.121936,0.11501 0.115065,0.16152 -0.03977,0.26943 -0.174909,0.12199 -0.174909,0.13797 0,0.24574 0.150326,0.0925 0.159613,0.1423 0.04729,0.25281 -0.108725,0.10695 -0.169639,0.10941 -0.274031,0.0112 -0.194051,-0.18303 -0.366386,-0.15593 -0.20133,0.0316 0.176891,0.20105 0.492284,0.20325 0.667035,0.005 z m 0.921277,-0.1144 c 0.24083,-0.4986 -0.244769,-1.14702 -0.604734,-0.80748 -0.12471,0.11764 -0.15088,0.78986 -0.03738,0.96299 0.136651,0.20856 0.509986,0.11813 0.642173,-0.15551 z m -0.531719,-0.0861 c -0.08746,-0.32896 0.03738,-0.72617 0.211213,-0.67154 0.173061,0.0545 0.168358,0.8379 -0.0053,0.89251 -0.07465,0.0234 -0.167247,-0.076 -0.205836,-0.22097 z m 1.400046,0.20052 c 0.07438,-0.0845 0.09578,-0.21388 0.04743,-0.2875 -0.04822,-0.0736 -0.09036,-0.25373 -0.09353,-0.40026 -0.0053,-0.21198 -0.06262,-0.26642 -0.283912,-0.26642 -0.190353,0 -0.29057,0.0665 -0.317638,0.21102 l -0.0395,0.21101 0.170287,-0.21101 c 0.140879,-0.17456 0.195756,-0.187 0.317638,-0.072 0.121935,0.11501 0.115066,0.16152 -0.03977,0.26943 -0.174911,0.122 -0.174911,0.13798 0,0.24574 0.150311,0.0926 0.159611,0.14231 0.04729,0.25281 -0.108724,0.10695 -0.169639,0.10941 -0.27403,0.0112 -0.194053,-0.18303 -0.366386,-0.15593 -0.201331,0.0316 0.176891,0.20106 0.492297,0.20325 0.667035,0.005 z m 0.894814,0 c 0.07438,-0.0845 0.09565,-0.21388 0.04743,-0.2875 -0.04822,-0.0736 -0.09036,-0.25373 -0.09353,-0.40026 -0.0053,-0.21237 -0.06249,-0.26642 -0.285444,-0.26642 -0.247846,0 -0.282221,0.0479 -0.302499,0.42203 -0.01321,0.23211 -0.0013,0.48136 0.02444,0.5539 0.0646,0.18001 0.443919,0.16647 0.609542,-0.0218 z m -0.505296,-0.0665 c -0.115198,-0.17592 0.143984,-0.37765 0.298284,-0.2321 0.129069,0.12175 0.04836,0.34681 -0.124444,0.34681 -0.0543,0 -0.132464,-0.0516 -0.173801,-0.11477 z m 0,-0.52752 c -0.115198,-0.17591 0.143984,-0.37765 0.298284,-0.23212 0.129069,0.12175 0.04836,0.34681 -0.124444,0.34681 -0.0543,0 -0.132464,-0.0516 -0.173801,-0.11464 z m -9.811205,0.26196 c -0.03712,-0.035 -0.13364,-0.0388 -0.214383,-0.009 -0.08918,0.0336 -0.06275,0.0587 0.06751,0.0638 0.117971,0.005 0.183972,-0.0203 0.14681,-0.0555 z m -5.064,-4.30991 c -0.380148,-0.35859 -0.353677,-0.74721 0.07673,-1.12645 l 0.351273,-0.30952 0.260699,-4.34836 0.2607,-4.34835 -0.332344,-0.24535 c -0.360816,-0.26636 -0.442678,-0.73023 -0.212837,-1.20605 0.106363,-0.2202 -0.150158,-0.68802 -2.331158,-4.25156 -1.347867,-2.20226 -2.664516,-4.37208 -2.925887,-4.82179 l -0.475221,-0.81766 h -0.504269 c -0.422793,0 -0.558142,-0.0545 -0.837713,-0.33671 -0.295831,-0.29872 -0.329286,-0.39817 -0.296541,-0.88147 l 0.03691,-0.54475 -0.760728,-0.6203 c -0.620385,-0.50585 -0.822654,-0.61416 -1.096379,-0.58707 -0.184607,0.0182 -0.462646,-0.0452 -0.617865,-0.14122 -0.243489,-0.15048 -0.277222,-0.23878 -0.24583,-0.64344 0.03529,-0.45482 -0.0144,-0.53599 -1.641377,-2.68134 -1.21316,-1.5997 -1.739708,-2.21316 -1.901463,-2.21534 -0.288919,-0.003 -0.438655,-0.10222 -0.602371,-0.39543 -0.146723,-0.26281 -0.05815,-0.49585 0.294127,-0.77394 0.150497,-0.11875 0.26633,-0.47048 0.399619,-1.21332 0.103225,-0.5753 0.383371,-2.11426 0.622533,-3.41988 0.373219,-2.03747 0.412883,-2.39747 0.279905,-2.54042 -0.205755,-0.22122 -0.19637,-0.57056 0.02083,-0.77545 0.202226,-0.19076 0.486232,-0.21096 0.85359,-0.0607 0.403023,0.16482 1.961248,-0.29925 2.139928,-0.63731 0.148757,-0.28145 0.396748,-0.36428 0.802808,-0.26815 0.516539,0.12224 0.48844,0.79795 -0.04398,1.05765 -0.176694,0.0862 -0.358117,0.29781 -0.428634,0.49999 -0.06724,0.1928 -0.531461,1.39504 -1.031584,2.67166 -1.485282,3.79133 -1.491836,3.81087 -1.357252,4.04808 0.290541,0.51209 -0.05938,0.91066 -0.7995,0.91066 -0.427268,0 -0.46927,0.0258 -0.557695,0.34333 -0.09096,0.32657 -0.01216,0.45273 1.614906,2.58487 1.501746,1.96795 1.75131,2.24585 2.044593,2.27677 0.464622,0.049 0.725535,0.30386 0.725535,0.70881 0,0.29101 0.117602,0.4404 0.788148,1.00115 0.73133,0.6116 0.807193,0.64949 1.052362,0.52573 0.251037,-0.12673 0.738225,-0.10866 1.24118,0.046 0.181319,0.0558 0.650896,-0.24402 2.237014,-1.42822 1.104136,-0.82434 2.095603,-1.551 2.203258,-1.61478 0.127154,-0.0754 0.19574,-0.24852 0.19574,-0.49423 0,-0.6083 0.574062,-0.98703 1.169422,-0.77153 0.26838,0.0972 0.531078,0.64763 0.463286,0.97084 -0.05191,0.24756 0.113401,0.45181 1.338852,1.654 l 1.39809,1.37158 h 0.621089 c 0.541085,0 0.655687,0.0378 0.889716,0.29452 l 0.268613,0.29453 2.937443,-0.67851 c 1.615592,-0.37318 3.937362,-0.90881 5.159486,-1.19028 1.909847,-0.43987 2.234949,-0.54383 2.314003,-0.73996 0.05059,-0.12549 0.139887,-0.2561 0.198465,-0.29025 0.18845,-0.10991 -0.204106,-1.32259 -0.470976,-1.45503 -0.300584,-0.14916 -0.400813,-0.29208 -0.402966,-0.5746 -0.0027,-0.31596 -0.655979,-0.75546 -1.184368,-0.79644 -0.36105,-0.0281 -0.453736,-0.0839 -0.544533,-0.32901 -0.07782,-0.20988 -0.06949,-0.35557 0.02854,-0.50377 0.11665,-0.17612 0.05059,-0.46748 -0.425372,-1.87765 -0.479986,-1.42201 -0.604985,-1.68705 -0.844113,-1.78981 -0.169413,-0.0728 -0.305669,-0.23846 -0.343716,-0.41787 -0.08693,-0.40981 -2.070133,-1.61654 -2.519865,-1.53325 -0.460883,0.0853 -0.76753,-0.12574 -0.76753,-0.52833 0,-0.42045 0.170576,-0.59767 0.575274,-0.59767 0.314785,0 0.650245,0.32013 0.660311,0.63014 0.0027,0.0886 0.510397,0.45744 1.127825,0.81957 0.860454,0.50467 1.167775,0.63561 1.316093,0.56073 0.472243,-0.23839 1.037265,0.48794 0.688212,0.88467 -0.09128,0.10383 -0.0053,0.48445 0.339476,1.49706 0.254068,0.74682 0.50634,1.5003 0.560597,1.67439 0.05641,0.18111 0.242707,0.39339 0.435411,0.49623 0.24827,0.13251 0.33694,0.25725 0.337508,0.47477 8.98e-4,0.36497 0.57349,0.76983 1.088708,0.76983 0.191741,0 0.427698,0.0746 0.524374,0.16578 0.196681,0.18554 0.235626,0.63091 0.06394,0.731 -0.155688,0.0907 -0.13998,0.34713 0.06024,0.98316 0.09472,0.30066 0.236169,0.54668 0.314469,0.54668 0.07834,0 0.257476,0.10114 0.398197,0.22481 0.323464,0.28427 0.24819,0.79296 -0.159295,1.07643 -0.33653,0.23409 -0.349886,0.4257 -0.05443,0.78006 0.292063,0.35024 0.282472,0.59114 -0.03646,0.91578 -0.228214,0.23227 -0.276936,0.44331 -0.396559,1.7178 -0.120745,1.28638 -0.116518,1.46666 0.03646,1.5722 0.09512,0.0656 0.172849,0.23561 0.172849,0.37784 0,0.3262 -0.410815,0.75625 -0.642358,0.67244 -0.316807,-0.11464 -0.699851,0.2285 -0.699851,0.627 0,0.25102 -0.06684,0.39683 -0.216352,0.47232 -0.310372,0.15669 -0.635409,0.13476 -0.838247,-0.0565 -0.403733,-0.38083 -0.01387,-1.08525 0.529366,-0.95663 0.325222,0.0771 0.794308,-0.33138 0.686113,-0.59731 -0.0424,-0.10447 0.0366,-0.26976 0.204898,-0.42849 0.248785,-0.23465 0.286528,-0.39653 0.409347,-1.75546 0.120086,-1.32914 0.115594,-1.51746 -0.04029,-1.67997 -0.247411,-0.25786 -0.222179,-0.71741 0.04809,-0.87665 0.288191,-0.16977 0.290186,-0.62459 0.004,-0.86904 -0.212058,-0.18103 -0.346359,-0.15867 -3.774963,0.62879 -1.955292,0.4491 -4.282057,0.98911 -5.170596,1.20004 l -1.615526,0.38352 -0.09512,0.34919 c -0.06354,0.23308 -0.222534,0.42009 -0.478307,0.56245 -0.47001,0.26157 -0.431251,0.0532 -0.762787,4.09984 l -0.263633,3.21791 0.284453,0.29132 c 0.189495,0.19408 0.281482,0.40541 0.27555,0.63303 -0.008,0.3076 0.0901,0.41536 0.982389,1.07934 0.788759,0.5869 1.057267,0.73109 1.314136,0.70567 0.450921,-0.0446 0.727395,0.2392 0.653191,0.67055 -0.04941,0.28725 0.08613,0.54996 0.929519,1.80161 0.543053,0.80591 1.322842,1.97187 1.732863,2.59101 l 0.74548,1.12571 0.58587,-0.0571 c 0.407748,-0.0398 0.685636,-0.008 0.914036,0.10394 1.706984,0.83734 1.028785,3.17578 -0.871088,3.00358 -1.300027,-0.11777 -1.971502,-1.67737 -1.099277,-2.55315 l 0.227396,-0.22831 -1.265811,-1.89325 c -2.126279,-3.18029 -2.305931,-3.42309 -2.532614,-3.42309 -0.288827,0 -0.561826,-0.28109 -0.561826,-0.57847 0,-0.18399 -0.24988,-0.43484 -0.980684,-0.98457 -0.962044,-0.72366 -0.990724,-0.7366 -1.509985,-0.6814 -0.291112,0.031 -0.529305,0.0717 -0.529305,0.0903 0,0.0187 0.05737,0.15285 0.127509,0.29804 0.284472,0.58892 -0.465329,1.33733 -1.108649,1.10662 -0.145079,-0.0521 -0.281826,-0.0946 -0.303882,-0.0946 -0.02205,0 -0.03136,0.21773 -0.02069,0.48387 0.01632,0.40643 -0.02861,0.52286 -0.280659,0.72739 -0.165044,0.13392 -0.345843,0.26038 -0.401776,0.28102 -0.0869,0.032 -0.593118,7.32061 -0.586665,8.44678 0.0016,0.27433 0.08559,0.46947 0.281866,0.65461 0.154368,0.14561 0.279626,0.38621 0.279626,0.53712 0,0.35176 -0.465957,0.79128 -0.83888,0.79128 -0.159388,0 -0.413339,-0.11651 -0.564337,-0.25896 z m 1.800373,-12.15411 c -0.160702,-0.60397 0.377155,-1.16318 1.031614,-1.07257 0.328429,0.0455 0.328457,0.0455 0.271765,-0.42903 -0.05168,-0.43242 -0.02578,-0.49883 0.292121,-0.74916 l 0.348825,-0.2747 0.222733,-2.5801 c 0.122463,-1.41906 0.255509,-3.03112 0.295564,-3.58238 l 0.07279,-1.00232 -0.338062,-0.23376 c -0.390575,-0.27006 -0.530113,-0.70965 -0.359569,-1.13276 0.114008,-0.28286 0.06988,-0.34292 -1.039364,-1.41627 -0.637132,-0.61649 -1.289236,-1.25939 -1.449121,-1.42866 -0.245001,-0.25941 -0.384195,-0.31111 -0.885444,-0.32881 -0.674538,-0.0238 -0.392747,-0.19222 -3.239007,1.93545 l -1.749459,1.30776 0.05637,0.39646 c 0.03599,0.25314 -0.01229,0.53293 -0.13358,0.77402 l -0.189955,0.37759 0.518073,0.8768 c 0.469434,0.79447 2.742066,4.52061 4.600983,7.54365 0.768145,1.24918 0.68266,1.18048 1.59523,1.28188 0.110336,0.0125 0.131539,-0.0599 0.07744,-0.26309 z M 13.635385,205.91999 c 0.105697,-0.19978 0.30009,-0.40791 0.431975,-0.46254 0.168342,-0.0697 0.340785,-0.36839 0.578716,-1.00229 0.186409,-0.49664 0.573099,-1.49644 0.859314,-2.22179 1.006178,-2.54992 1.495825,-3.88182 1.444786,-3.92996 -0.103719,-0.0978 -2.060026,0.48911 -2.060026,0.61805 0,0.0723 -0.128699,0.22693 -0.285987,0.34364 -0.2529,0.18764 -0.317684,0.38689 -0.559942,1.72212 -0.585366,3.2263 -0.943682,5.26471 -0.943682,5.36848 0,0.20779 0.341587,-0.0705 0.534846,-0.43571 z"
       id="path46" />
  </g>
</svg>
