<?xml version="1.0" encoding="UTF-8" standalone="no"?>
<svg
   xmlns:dc="http://purl.org/dc/elements/1.1/"
   xmlns:cc="http://creativecommons.org/ns#"
   xmlns:rdf="http://www.w3.org/1999/02/22-rdf-syntax-ns#"
   xmlns:svg="http://www.w3.org/2000/svg"
   xmlns="http://www.w3.org/2000/svg"
   xmlns:sodipodi="http://sodipodi.sourceforge.net/DTD/sodipodi-0.dtd"
   xmlns:inkscape="http://www.inkscape.org/namespaces/inkscape"
   sodipodi:docname="desenhando_bot.svg"
   inkscape:version="1.0.1 (3bc2e813f5, 2020-09-07)"
   id="svg8"
   version="1.1"
   viewBox="0 0 61.76513 61.76513"
   height="61.765129mm"
   width="61.765129mm">
  <defs
     id="defs2" />
  <sodipodi:namedview
     inkscape:window-maximized="0"
     inkscape:window-y="0"
     inkscape:window-x="0"
     inkscape:window-height="729"
     inkscape:window-width="1350"
     showgrid="false"
     inkscape:document-rotation="0"
     inkscape:current-layer="layer1"
     inkscape:document-units="mm"
     inkscape:cy="166.29014"
     inkscape:cx="146.48073"
     inkscape:zoom="4.2053975"
     inkscape:pageshadow="2"
     inkscape:pageopacity="0.0"
     borderopacity="1.0"
     bordercolor="#666666"
     pagecolor="#ffffff"
     id="base" />
  <metadata
     id="metadata5">
    <rdf:RDF>
      <cc:Work
         rdf:about="">
        <dc:format>image/svg+xml</dc:format>
        <dc:type
           rdf:resource="http://purl.org/dc/dcmitype/StillImage" />
        <dc:title></dc:title>
      </cc:Work>
    </rdf:RDF>
  </metadata>
  <g
     id="layer1"
     inkscape:groupmode="layer"
     inkscape:label="Layer 1"
     transform="translate(-4.4487752,-30.227074)">
    <path
       d="M 35.331787,30.670066 A 30.43963,30.43963 0 0 0 4.8917672,61.109636 30.43963,30.43963 0 0 0 35.331787,91.549212 30.43963,30.43963 0 0 0 65.770912,61.269635 17.394075,17.394075 0 0 1 53.995345,65.862379 17.394075,17.394075 0 0 1 36.600984,48.468015 17.394075,17.394075 0 0 1 46.475901,32.783743 30.43963,30.43963 0 0 0 35.331787,30.670066 Z"
       style="fill:none;stroke:#000000;stroke-width:0.885984;stroke-linecap:round;stroke-linejoin:round;stroke-dashoffset:1.85197;stroke-opacity:1;paint-order:markers fill stroke"
       id="path833" />
    <g
       transform="matrix(0.24631745,-0.60064791,-0.60064791,-0.24631745,71.499426,101.27857)"
       style="font-style:normal;font-variant:normal;font-weight:normal;font-stretch:normal;font-size:2.82222px;line-height:1.25;font-family:go;-inkscape-font-specification:go;font-variant-ligatures:normal;font-variant-caps:normal;font-variant-numeric:normal;font-variant-east-asian:normal;stroke:#000000;stroke-width:0.138;stroke-miterlimit:4;stroke-dasharray:none;stroke-opacity:1"
       id="text900"
       aria-label="Juliallabs">
      <g
         style="opacity:1"
         id="g1012">
        <path
           id="path1014"
           d="m 34.491323,30.036696 c -0.0033,-0.180035 0.04935,-0.319726 0.157851,-0.419075 0.107555,-0.09933 0.253646,-0.150659 0.438273,-0.153981 0.04409,-8e-4 0.102954,0.0023 0.176583,0.0092 0.07362,0.006 0.135324,0.01408 0.185123,0.02423 l 0.0046,0.254896 -0.01516,2.73e-4 c -0.03789,-0.01218 -0.08452,-0.02466 -0.139878,-0.03745 -0.05536,-0.01279 -0.111974,-0.01866 -0.169843,-0.01762 -0.08451,0.0015 -0.151386,0.01238 -0.20064,0.03255 -0.05017,0.0202 -0.08688,0.04843 -0.110116,0.08468 -0.02414,0.03719 -0.03895,0.08248 -0.04442,0.135868 -0.0064,0.05341 -0.009,0.115015 -0.0077,0.184826 l 0.02154,1.19732 0.434011,-0.0078 0.0039,0.217694 -0.706819,0.01272 z"
           style="color:#000000;font-style:normal;font-variant:normal;font-weight:normal;font-stretch:normal;font-size:2.82222px;line-height:1.25;font-family:go;-inkscape-font-specification:go;font-variant-ligatures:normal;font-variant-position:normal;font-variant-caps:normal;font-variant-numeric:normal;font-variant-alternates:normal;font-variant-east-asian:normal;font-feature-settings:normal;font-variation-settings:normal;text-indent:0;text-align:start;text-decoration:none;text-decoration-line:none;text-decoration-style:solid;text-decoration-color:#000000;letter-spacing:normal;word-spacing:normal;text-transform:none;writing-mode:lr-tb;direction:ltr;text-orientation:mixed;dominant-baseline:auto;baseline-shift:baseline;text-anchor:start;white-space:normal;shape-padding:0;shape-margin:0;inline-size:0;clip-rule:nonzero;display:inline;overflow:visible;visibility:visible;isolation:auto;mix-blend-mode:normal;color-interpolation:sRGB;color-interpolation-filters:linearRGB;solid-color:#000000;solid-opacity:1;vector-effect:none;fill:#000000;fill-opacity:1;fill-rule:nonzero;stroke:none;stroke-width:0.138;stroke-linecap:butt;stroke-linejoin:miter;stroke-miterlimit:4;stroke-dasharray:none;stroke-dashoffset:0;stroke-opacity:1;color-rendering:auto;image-rendering:auto;shape-rendering:auto;text-rendering:auto;enable-background:accumulate;stop-color:#000000;stop-opacity:1" />
        <path
           id="path1016"
           d="m 35.085938,29.394531 c -0.196051,0.0035 -0.360818,0.06025 -0.482422,0.171875 -0.124066,0.113601 -0.185163,0.276584 -0.181641,0.470703 l 0.0293,1.587891 0.84375,-0.01563 -0.0059,-0.355469 -0.433593,0.0078 -0.01953,-1.126953 c -0.0012,-0.06738 -5.5e-5,-0.126435 0.0059,-0.175782 v -0.002 c 0.0046,-0.04477 0.01793,-0.07893 0.03516,-0.105469 0.0142,-0.02216 0.03584,-0.04236 0.07617,-0.05859 h 0.002 c 0.03702,-0.01516 0.09652,-0.02591 0.175781,-0.02734 0.05239,-9.42e-4 0.10252,0.0041 0.152344,0.01563 0.05404,0.01248 0.09949,0.02577 0.134766,0.03711 l 0.0098,0.0039 0.0957,-0.002 -0.0059,-0.378906 -0.05469,-0.01172 c -0.05371,-0.01095 -0.117858,-0.01924 -0.19336,-0.02539 -0.07516,-0.0071 -0.135189,-0.01064 -0.183593,-0.0098 z m 0.002,0.138672 c 0.03978,-7.22e-4 0.09782,0.001 0.169921,0.0078 0.04963,0.004 0.08564,0.0098 0.123047,0.01563 l 0.002,0.111328 c -0.02319,-0.0062 -0.04145,-0.01332 -0.06836,-0.01953 -0.0609,-0.01407 -0.124156,-0.02067 -0.1875,-0.01953 -0.08975,0.0016 -0.163117,0.01193 -0.224609,0.03711 -0.06002,0.02416 -0.110308,0.06098 -0.142578,0.111328 -0.03106,0.04784 -0.04833,0.104003 -0.05469,0.166015 -0.0067,0.05703 -0.0091,0.121844 -0.0078,0.19336 l 0.02344,1.265625 0.431641,-0.0059 0.002,0.07813 -0.568359,0.0098 -0.02539,-1.449219 c -0.003,-0.16595 0.04183,-0.28209 0.134765,-0.367187 0.09338,-0.08624 0.220079,-0.131662 0.392579,-0.134766 z"
           style="color:#000000;font-style:normal;font-variant:normal;font-weight:normal;font-stretch:normal;font-size:2.82222px;line-height:1.25;font-family:go;-inkscape-font-specification:go;font-variant-ligatures:normal;font-variant-position:normal;font-variant-caps:normal;font-variant-numeric:normal;font-variant-alternates:normal;font-variant-east-asian:normal;font-feature-settings:normal;font-variation-settings:normal;text-indent:0;text-align:start;text-decoration:none;text-decoration-line:none;text-decoration-style:solid;text-decoration-color:#000000;letter-spacing:normal;word-spacing:normal;text-transform:none;writing-mode:lr-tb;direction:ltr;text-orientation:mixed;dominant-baseline:auto;baseline-shift:baseline;text-anchor:start;white-space:normal;shape-padding:0;shape-margin:0;inline-size:0;clip-rule:nonzero;display:inline;overflow:visible;visibility:visible;isolation:auto;mix-blend-mode:normal;color-interpolation:sRGB;color-interpolation-filters:linearRGB;solid-color:#000000;solid-opacity:1;vector-effect:none;fill:#000000;fill-opacity:1;fill-rule:nonzero;stroke:none;stroke-width:0.138;stroke-linecap:butt;stroke-linejoin:miter;stroke-miterlimit:4;stroke-dasharray:none;stroke-dashoffset:0;stroke-opacity:1;color-rendering:auto;image-rendering:auto;shape-rendering:auto;text-rendering:auto;enable-background:accumulate;stop-color:#000000;stop-opacity:1" />
      </g>
      <g
         style="opacity:1"
         id="g1018">
        <path
           id="path1020"
           d="m 32.696937,29.596356 0.258585,-0.01586 0.01046,0.170556 c 0.08289,-0.07412 0.163103,-0.13196 0.240629,-0.173533 0.07753,-0.04157 0.16443,-0.06531 0.260712,-0.07122 0.161386,-0.0099 0.29002,0.03145 0.385902,0.124054 0.09594,0.09352 0.149757,0.235645 0.161457,0.426374 l 0.06117,0.997202 -0.258585,0.01586 -0.05366,-0.874787 c -0.0048,-0.07794 -0.01257,-0.144656 -0.02332,-0.200141 -0.01071,-0.05457 -0.0292,-0.100834 -0.05546,-0.138803 -0.02723,-0.03883 -0.06113,-0.0662 -0.101682,-0.08212 -0.04055,-0.01592 -0.09843,-0.02157 -0.173619,-0.01696 -0.06694,0.0041 -0.138769,0.02603 -0.21549,0.06568 -0.07764,0.03974 -0.149185,0.08877 -0.214639,0.147088 l 0.07037,1.147127 -0.258585,0.01586 z"
           style="color:#000000;font-style:normal;font-variant:normal;font-weight:normal;font-stretch:normal;font-size:2.82222px;line-height:1.25;font-family:go;-inkscape-font-specification:go;font-variant-ligatures:normal;font-variant-position:normal;font-variant-caps:normal;font-variant-numeric:normal;font-variant-alternates:normal;font-variant-east-asian:normal;font-feature-settings:normal;font-variation-settings:normal;text-indent:0;text-align:start;text-decoration:none;text-decoration-line:none;text-decoration-style:solid;text-decoration-color:#000000;letter-spacing:normal;word-spacing:normal;text-transform:none;writing-mode:lr-tb;direction:ltr;text-orientation:mixed;dominant-baseline:auto;baseline-shift:baseline;text-anchor:start;white-space:normal;shape-padding:0;shape-margin:0;inline-size:0;clip-rule:nonzero;display:inline;overflow:visible;visibility:visible;isolation:auto;mix-blend-mode:normal;color-interpolation:sRGB;color-interpolation-filters:linearRGB;solid-color:#000000;solid-opacity:1;vector-effect:none;fill:#000000;fill-opacity:1;fill-rule:nonzero;stroke:none;stroke-width:0.138;stroke-linecap:butt;stroke-linejoin:miter;stroke-miterlimit:4;stroke-dasharray:none;stroke-dashoffset:0;stroke-opacity:1;color-rendering:auto;image-rendering:auto;shape-rendering:auto;text-rendering:auto;enable-background:accumulate;stop-color:#000000;stop-opacity:1" />
        <path
           id="path1022"
           d="m 33.462891,29.4375 c -0.105028,0.0064 -0.202252,0.03353 -0.289063,0.08008 -0.04831,0.0259 -0.09745,0.06874 -0.146484,0.105469 l -0.0078,-0.115235 -0.396484,0.02344 0.0059,0.06836 0.09766,1.605469 0.396485,-0.02344 -0.07227,-1.177735 c 0.05455,-0.04555 0.110635,-0.0868 0.173828,-0.11914 h 0.002 c 0.07032,-0.03634 0.132491,-0.0552 0.1875,-0.05859 0.06959,-0.0043 0.119591,0.0019 0.144532,0.01172 0.02768,0.01087 0.04978,0.02932 0.07031,0.05859 0.01952,0.02867 0.03386,0.06496 0.04297,0.111328 0.01,0.05145 0.01877,0.115615 0.02344,0.191407 l 0.05664,0.943359 0.396485,-0.02344 -0.06445,-1.066407 C 34.07173,29.85119 34.01417,29.688986 33.90245,29.580079 h -0.002 C 33.78971,29.473183 33.638233,29.426744 33.462891,29.4375 Z m 0.0078,0.136719 c 0.147429,-0.009 0.252901,0.02716 0.333985,0.105469 0.08015,0.07813 0.129588,0.200946 0.140624,0.380859 l 0.05859,0.927734 -0.121094,0.0078 -0.05078,-0.804688 c -0.0049,-0.08009 -0.01191,-0.14946 -0.02344,-0.208984 -0.01218,-0.06206 -0.03385,-0.118939 -0.06641,-0.166016 -0.03393,-0.04838 -0.08134,-0.08645 -0.134766,-0.107422 -0.05617,-0.02205 -0.12038,-0.02644 -0.201172,-0.02148 -0.07887,0.0049 -0.161017,0.03126 -0.244141,0.07422 -0.08282,0.04239 -0.158756,0.09409 -0.228515,0.15625 l -0.02539,0.02344 0.06836,1.111328 -0.121093,0.0078 -0.08594,-1.398438 0.121094,-0.0098 0.01563,0.24414 0.105469,-0.09375 c 0.0797,-0.07126 0.15506,-0.12572 0.226562,-0.164062 0.06824,-0.03659 0.144886,-0.05908 0.232422,-0.06445 z"
           style="color:#000000;font-style:normal;font-variant:normal;font-weight:normal;font-stretch:normal;font-size:2.82222px;line-height:1.25;font-family:go;-inkscape-font-specification:go;font-variant-ligatures:normal;font-variant-position:normal;font-variant-caps:normal;font-variant-numeric:normal;font-variant-alternates:normal;font-variant-east-asian:normal;font-feature-settings:normal;font-variation-settings:normal;text-indent:0;text-align:start;text-decoration:none;text-decoration-line:none;text-decoration-style:solid;text-decoration-color:#000000;letter-spacing:normal;word-spacing:normal;text-transform:none;writing-mode:lr-tb;direction:ltr;text-orientation:mixed;dominant-baseline:auto;baseline-shift:baseline;text-anchor:start;white-space:normal;shape-padding:0;shape-margin:0;inline-size:0;clip-rule:nonzero;display:inline;overflow:visible;visibility:visible;isolation:auto;mix-blend-mode:normal;color-interpolation:sRGB;color-interpolation-filters:linearRGB;solid-color:#000000;solid-opacity:1;vector-effect:none;fill:#000000;fill-opacity:1;fill-rule:nonzero;stroke:none;stroke-width:0.138;stroke-linecap:butt;stroke-linejoin:miter;stroke-miterlimit:4;stroke-dasharray:none;stroke-dashoffset:0;stroke-opacity:1;color-rendering:auto;image-rendering:auto;shape-rendering:auto;text-rendering:auto;enable-background:accumulate;stop-color:#000000;stop-opacity:1" />
      </g>
      <g
         style="opacity:1"
         id="g1024">
        <path
           id="path1026"
           d="m 31.928724,29.671452 0.257838,-0.02525 0.208992,2.134016 -0.257837,0.02525 z"
           style="color:#000000;font-style:normal;font-variant:normal;font-weight:normal;font-stretch:normal;font-size:2.82222px;line-height:1.25;font-family:go;-inkscape-font-specification:go;font-variant-ligatures:normal;font-variant-position:normal;font-variant-caps:normal;font-variant-numeric:normal;font-variant-alternates:normal;font-variant-east-asian:normal;font-feature-settings:normal;font-variation-settings:normal;text-indent:0;text-align:start;text-decoration:none;text-decoration-line:none;text-decoration-style:solid;text-decoration-color:#000000;letter-spacing:normal;word-spacing:normal;text-transform:none;writing-mode:lr-tb;direction:ltr;text-orientation:mixed;dominant-baseline:auto;baseline-shift:baseline;text-anchor:start;white-space:normal;shape-padding:0;shape-margin:0;inline-size:0;clip-rule:nonzero;display:inline;overflow:visible;visibility:visible;isolation:auto;mix-blend-mode:normal;color-interpolation:sRGB;color-interpolation-filters:linearRGB;solid-color:#000000;solid-opacity:1;vector-effect:none;fill:#000000;fill-opacity:1;fill-rule:nonzero;stroke:none;stroke-width:0.138;stroke-linecap:butt;stroke-linejoin:miter;stroke-miterlimit:4;stroke-dasharray:none;stroke-dashoffset:0;stroke-opacity:1;color-rendering:auto;image-rendering:auto;shape-rendering:auto;text-rendering:auto;enable-background:accumulate;stop-color:#000000;stop-opacity:1" />
        <path
           id="path1028"
           d="m 32.248047,29.570312 -0.394531,0.03906 0.0059,0.06836 0.216797,2.203125 0.394531,-0.03906 z m -0.123047,0.150391 0.195312,1.998047 -0.121093,0.01172 -0.195313,-1.998047 z"
           style="color:#000000;font-style:normal;font-variant:normal;font-weight:normal;font-stretch:normal;font-size:2.82222px;line-height:1.25;font-family:go;-inkscape-font-specification:go;font-variant-ligatures:normal;font-variant-position:normal;font-variant-caps:normal;font-variant-numeric:normal;font-variant-alternates:normal;font-variant-east-asian:normal;font-feature-settings:normal;font-variation-settings:normal;text-indent:0;text-align:start;text-decoration:none;text-decoration-line:none;text-decoration-style:solid;text-decoration-color:#000000;letter-spacing:normal;word-spacing:normal;text-transform:none;writing-mode:lr-tb;direction:ltr;text-orientation:mixed;dominant-baseline:auto;baseline-shift:baseline;text-anchor:start;white-space:normal;shape-padding:0;shape-margin:0;inline-size:0;clip-rule:nonzero;display:inline;overflow:visible;visibility:visible;isolation:auto;mix-blend-mode:normal;color-interpolation:sRGB;color-interpolation-filters:linearRGB;solid-color:#000000;solid-opacity:1;vector-effect:none;fill:#000000;fill-opacity:1;fill-rule:nonzero;stroke:none;stroke-width:0.138;stroke-linecap:butt;stroke-linejoin:miter;stroke-miterlimit:4;stroke-dasharray:none;stroke-dashoffset:0;stroke-opacity:1;color-rendering:auto;image-rendering:auto;shape-rendering:auto;text-rendering:auto;enable-background:accumulate;stop-color:#000000;stop-opacity:1" />
      </g>
      <g
         style="opacity:1"
         id="g1030">
        <path
           id="path1032"
           d="m 31.354685,31.544646 0.290051,-0.03491 0.03211,0.266792 -0.290052,0.03491 z m -0.198287,-1.786064 0.257215,-0.03095 0.183915,1.528241 -0.257215,0.03095 z"
           style="color:#000000;font-style:normal;font-variant:normal;font-weight:normal;font-stretch:normal;font-size:2.82222px;line-height:1.25;font-family:go;-inkscape-font-specification:go;font-variant-ligatures:normal;font-variant-position:normal;font-variant-caps:normal;font-variant-numeric:normal;font-variant-alternates:normal;font-variant-east-asian:normal;font-feature-settings:normal;font-variation-settings:normal;text-indent:0;text-align:start;text-decoration:none;text-decoration-line:none;text-decoration-style:solid;text-decoration-color:#000000;letter-spacing:normal;word-spacing:normal;text-transform:none;writing-mode:lr-tb;direction:ltr;text-orientation:mixed;dominant-baseline:auto;baseline-shift:baseline;text-anchor:start;white-space:normal;shape-padding:0;shape-margin:0;inline-size:0;clip-rule:nonzero;display:inline;overflow:visible;visibility:visible;isolation:auto;mix-blend-mode:normal;color-interpolation:sRGB;color-interpolation-filters:linearRGB;solid-color:#000000;solid-opacity:1;vector-effect:none;fill:#000000;fill-opacity:1;fill-rule:nonzero;stroke:none;stroke-width:0.138;stroke-linecap:butt;stroke-linejoin:miter;stroke-miterlimit:4;stroke-dasharray:none;stroke-dashoffset:0;stroke-opacity:1;color-rendering:auto;image-rendering:auto;shape-rendering:auto;text-rendering:auto;enable-background:accumulate;stop-color:#000000;stop-opacity:1" />
        <path
           id="path1034"
           d="m 31.474609,29.650391 -0.394531,0.04883 0.0078,0.06836 0.191406,1.595703 0.394531,-0.04687 z m -0.121093,0.154297 0.167968,1.390624 -0.121093,0.01563 -0.167969,-1.392579 z m 0.351562,1.628906 -0.427734,0.05078 0.0098,0.06836 0.03906,0.335938 0.427734,-0.05273 z m -0.121094,0.152344 0.01563,0.130859 -0.152343,0.01758 -0.01563,-0.128906 z"
           style="color:#000000;font-style:normal;font-variant:normal;font-weight:normal;font-stretch:normal;font-size:2.82222px;line-height:1.25;font-family:go;-inkscape-font-specification:go;font-variant-ligatures:normal;font-variant-position:normal;font-variant-caps:normal;font-variant-numeric:normal;font-variant-alternates:normal;font-variant-east-asian:normal;font-feature-settings:normal;font-variation-settings:normal;text-indent:0;text-align:start;text-decoration:none;text-decoration-line:none;text-decoration-style:solid;text-decoration-color:#000000;letter-spacing:normal;word-spacing:normal;text-transform:none;writing-mode:lr-tb;direction:ltr;text-orientation:mixed;dominant-baseline:auto;baseline-shift:baseline;text-anchor:start;white-space:normal;shape-padding:0;shape-margin:0;inline-size:0;clip-rule:nonzero;display:inline;overflow:visible;visibility:visible;isolation:auto;mix-blend-mode:normal;color-interpolation:sRGB;color-interpolation-filters:linearRGB;solid-color:#000000;solid-opacity:1;vector-effect:none;fill:#000000;fill-opacity:1;fill-rule:nonzero;stroke:none;stroke-width:0.138;stroke-linecap:butt;stroke-linejoin:miter;stroke-miterlimit:4;stroke-dasharray:none;stroke-dashoffset:0;stroke-opacity:1;color-rendering:auto;image-rendering:auto;shape-rendering:auto;text-rendering:auto;enable-background:accumulate;stop-color:#000000;stop-opacity:1" />
      </g>
      <g
         style="opacity:1"
         id="g1036">
        <path
           id="path1038"
           d="m 29.462949,30.005858 0.254598,-0.03982 0.02534,0.162017 c 0.02028,-0.01898 0.04773,-0.04559 0.08236,-0.07983 0.03387,-0.03319 0.06767,-0.0608 0.101421,-0.08281 0.03939,-0.02755 0.08571,-0.05246 0.138949,-0.07473 0.05309,-0.02318 0.116855,-0.04059 0.191285,-0.05223 0.137056,-0.02143 0.260334,0.0058 0.369835,0.08164 0.1095,0.07586 0.175252,0.184133 0.197255,0.32482 0.01803,0.115272 0.0081,0.21214 -0.02987,0.290603 -0.03871,0.07951 -0.100702,0.14686 -0.185987,0.202043 -0.08619,0.05533 -0.193052,0.1004 -0.320575,0.135221 -0.127523,0.03482 -0.265145,0.0675 -0.412865,0.09805 l 0.0062,0.03948 c 0.0091,0.05809 0.02705,0.10456 0.05389,0.13942 0.02593,0.035 0.05966,0.06041 0.101189,0.07623 0.03957,0.0152 0.08534,0.02245 0.137304,0.02176 0.05197,-6.67e-4 0.105632,-0.0053 0.160997,-0.01402 0.06717,-0.01051 0.140629,-0.03129 0.220386,-0.06236 0.0799,-0.03017 0.161245,-0.06893 0.244035,-0.116276 l 0.01361,-0.0021 0.04067,0.260044 c -0.04779,0.02142 -0.11761,0.04768 -0.209449,0.07879 -0.09184,0.0311 -0.183598,0.05382 -0.275271,0.06816 -0.107104,0.01675 -0.201559,0.02223 -0.283364,0.01642 -0.08257,-0.0047 -0.156237,-0.0239 -0.221,-0.05749 -0.06371,-0.03281 -0.115727,-0.08 -0.156042,-0.141574 -0.04031,-0.06157 -0.06814,-0.141374 -0.08347,-0.239402 z m 0.313156,0.334588 0.06622,0.423422 c 0.07735,-0.01675 0.168411,-0.03796 0.273187,-0.06365 0.103869,-0.02555 0.185315,-0.05177 0.244338,-0.07866 0.07025,-0.03237 0.124596,-0.07435 0.163023,-0.125922 0.03857,-0.05067 0.05182,-0.114575 0.03975,-0.191725 -0.01363,-0.08713 -0.05024,-0.148823 -0.109842,-0.185065 -0.05946,-0.03533 -0.143195,-0.04455 -0.251204,-0.02766 -0.08986,0.01405 -0.169304,0.04415 -0.238337,0.09028 -0.06889,0.04704 -0.131273,0.100035 -0.187143,0.158985 z"
           style="color:#000000;font-style:normal;font-variant:normal;font-weight:normal;font-stretch:normal;font-size:2.82222px;line-height:1.25;font-family:go;-inkscape-font-specification:go;font-variant-ligatures:normal;font-variant-position:normal;font-variant-caps:normal;font-variant-numeric:normal;font-variant-alternates:normal;font-variant-east-asian:normal;font-feature-settings:normal;font-variation-settings:normal;text-indent:0;text-align:start;text-decoration:none;text-decoration-line:none;text-decoration-style:solid;text-decoration-color:#000000;letter-spacing:normal;word-spacing:normal;text-transform:none;writing-mode:lr-tb;direction:ltr;text-orientation:mixed;dominant-baseline:auto;baseline-shift:baseline;text-anchor:start;white-space:normal;shape-padding:0;shape-margin:0;inline-size:0;clip-rule:nonzero;display:inline;overflow:visible;visibility:visible;isolation:auto;mix-blend-mode:normal;color-interpolation:sRGB;color-interpolation-filters:linearRGB;solid-color:#000000;solid-opacity:1;vector-effect:none;fill:#000000;fill-opacity:1;fill-rule:nonzero;stroke:none;stroke-width:0.138;stroke-linecap:butt;stroke-linejoin:miter;stroke-miterlimit:4;stroke-dasharray:none;stroke-dashoffset:0;stroke-opacity:1;color-rendering:auto;image-rendering:auto;shape-rendering:auto;text-rendering:auto;enable-background:accumulate;stop-color:#000000;stop-opacity:1" />
        <path
           id="path1040"
           d="m 30.246094,29.769531 c -0.07886,0.01233 -0.148937,0.03238 -0.208985,0.05859 -0.05593,0.02358 -0.106867,0.04964 -0.15039,0.08008 -0.03297,0.02162 -0.06395,0.04831 -0.0957,0.07813 l -0.01563,-0.09961 -0.390625,0.0625 0.0098,0.06641 0.16211,1.033203 c 0.01642,0.104971 0.04644,0.193367 0.09375,0.265625 0.04636,0.07081 0.107572,0.127877 0.18164,0.166016 0.07423,0.0385 0.157194,0.05925 0.248047,0.06445 0.0886,0.0063 0.187872,-2.22e-4 0.298828,-0.01758 0.09572,-0.01497 0.191714,-0.03801 0.28711,-0.07031 0.09295,-0.03148 0.163373,-0.05896 0.214843,-0.08203 l 0.04883,-0.02148 -0.06055,-0.378907 -0.09375,0.01367 -0.01172,0.0078 c -0.07997,0.04574 -0.156315,0.08259 -0.232422,0.111328 h -0.002 c -0.0761,0.02964 -0.144051,0.04905 -0.205078,0.05859 -0.05237,0.0082 -0.103904,0.01305 -0.152344,0.01367 -0.045,6e-4 -0.08152,-0.0061 -0.111328,-0.01758 -0.03017,-0.01149 -0.05191,-0.02789 -0.07031,-0.05273 v -0.002 c -0.01401,-0.01819 -0.02487,-0.04972 -0.0332,-0.08398 0.121931,-0.02638 0.241571,-0.05448 0.34961,-0.08398 0.132671,-0.03623 0.244217,-0.0844 0.33789,-0.144531 h 0.002 c 0.09398,-0.06081 0.164298,-0.136719 0.208985,-0.228516 0.04557,-0.09424 0.05665,-0.207097 0.03711,-0.332031 -0.02441,-0.156081 -0.102427,-0.285096 -0.226562,-0.371094 -0.123079,-0.08527 -0.267818,-0.117536 -0.419922,-0.09375 z m 0.02148,0.136719 c 0.122007,-0.01908 0.22439,0.0039 0.320313,0.07031 0.09487,0.06572 0.148373,0.154004 0.167968,0.279297 0.01652,0.105611 0.0069,0.187315 -0.02344,0.25 -0.03273,0.06723 -0.08552,0.124271 -0.16211,0.173829 -0.07871,0.05053 -0.178405,0.09354 -0.300781,0.126953 -0.125938,0.03439 -0.261718,0.06541 -0.408203,0.0957 l -0.06445,0.01367 0.01563,0.105468 c 0.01036,0.06625 0.03251,0.123366 0.06836,0.169922 0.03337,0.04453 0.07848,0.07965 0.13086,0.09961 0.04934,0.01895 0.103187,0.02618 0.162109,0.02539 0.05549,-7.12e-4 0.113514,-0.0045 0.171875,-0.01367 0.07274,-0.01138 0.149737,-0.03432 0.232422,-0.06641 0.05926,-0.02237 0.119477,-0.05483 0.179687,-0.08594 l 0.01758,0.117187 c -0.04235,0.01722 -0.08527,0.03522 -0.154297,0.05859 -0.08829,0.0299 -0.176048,0.0527 -0.263672,0.06641 -0.103252,0.01615 -0.192569,0.02095 -0.267578,0.01563 h -0.002 c -0.07429,-0.0043 -0.136108,-0.0221 -0.191407,-0.05078 h -0.002 c -0.05336,-0.02747 -0.09464,-0.06485 -0.128906,-0.117188 -0.03332,-0.05089 -0.05802,-0.121805 -0.07227,-0.21289 l -0.152343,-0.962891 0.11914,-0.01953 0.03516,0.222656 0.09375,-0.08984 c 0.02109,-0.01974 0.0491,-0.04558 0.08398,-0.08008 0.03113,-0.03051 0.0625,-0.05511 0.0918,-0.07422 l 0.002,-0.002 c 0.03459,-0.02419 0.07551,-0.0457 0.125,-0.06641 l 0.002,-0.002 c 0.04614,-0.02014 0.103832,-0.03593 0.173828,-0.04687 z m -0.07617,0.117188 c -0.09858,0.01542 -0.187783,0.04954 -0.265625,0.101562 h -0.002 c -0.0728,0.04971 -0.137958,0.105392 -0.197266,0.167969 l -0.02344,0.02539 0.0039,0.0332 0.07813,0.496094 0.07227,-0.01563 c 0.07818,-0.01693 0.170169,-0.03866 0.27539,-0.06445 0.106379,-0.02616 0.190441,-0.05418 0.25586,-0.08398 0.07856,-0.0362 0.143122,-0.0843 0.189453,-0.146485 0.05089,-0.06686 0.06689,-0.153624 0.05273,-0.24414 -0.01577,-0.100864 -0.064,-0.184639 -0.142578,-0.232422 v -0.002 c -0.07939,-0.04717 -0.179699,-0.05348 -0.296875,-0.03516 z m 0.02148,0.136718 c 0.09791,-0.01531 0.16345,-0.0055 0.203125,0.01758 0.04062,0.0247 0.06665,0.06331 0.07813,0.136719 0.01,0.06378 8.52e-4,0.104195 -0.02539,0.138672 l -0.002,0.002 c -0.03052,0.04097 -0.07477,0.07497 -0.136719,0.103516 -0.05261,0.02382 -0.129882,0.04948 -0.230469,0.07422 -0.07723,0.01893 -0.139156,0.03288 -0.201171,0.04688 l -0.04883,-0.310547 c 0.04692,-0.04676 0.09593,-0.09234 0.152344,-0.13086 0.06022,-0.04025 0.129802,-0.06544 0.210938,-0.07813 z"
           style="color:#000000;font-style:normal;font-variant:normal;font-weight:normal;font-stretch:normal;font-size:2.82222px;line-height:1.25;font-family:go;-inkscape-font-specification:go;font-variant-ligatures:normal;font-variant-position:normal;font-variant-caps:normal;font-variant-numeric:normal;font-variant-alternates:normal;font-variant-east-asian:normal;font-feature-settings:normal;font-variation-settings:normal;text-indent:0;text-align:start;text-decoration:none;text-decoration-line:none;text-decoration-style:solid;text-decoration-color:#000000;letter-spacing:normal;word-spacing:normal;text-transform:none;writing-mode:lr-tb;direction:ltr;text-orientation:mixed;dominant-baseline:auto;baseline-shift:baseline;text-anchor:start;white-space:normal;shape-padding:0;shape-margin:0;inline-size:0;clip-rule:nonzero;display:inline;overflow:visible;visibility:visible;isolation:auto;mix-blend-mode:normal;color-interpolation:sRGB;color-interpolation-filters:linearRGB;solid-color:#000000;solid-opacity:1;vector-effect:none;fill:#000000;fill-opacity:1;fill-rule:nonzero;stroke:none;stroke-width:0.138;stroke-linecap:butt;stroke-linejoin:miter;stroke-miterlimit:4;stroke-dasharray:none;stroke-dashoffset:0;stroke-opacity:1;color-rendering:auto;image-rendering:auto;shape-rendering:auto;text-rendering:auto;enable-background:accumulate;stop-color:#000000;stop-opacity:1" />
      </g>
      <g
         style="opacity:1"
         id="g1042">
        <path
           id="path1044"
           d="m 28.713158,30.149923 0.254379,-0.04909 0.40626,2.105387 -0.254378,0.04909 z"
           style="color:#000000;font-style:normal;font-variant:normal;font-weight:normal;font-stretch:normal;font-size:2.82222px;line-height:1.25;font-family:go;-inkscape-font-specification:go;font-variant-ligatures:normal;font-variant-position:normal;font-variant-caps:normal;font-variant-numeric:normal;font-variant-alternates:normal;font-variant-east-asian:normal;font-feature-settings:normal;font-variation-settings:normal;text-indent:0;text-align:start;text-decoration:none;text-decoration-line:none;text-decoration-style:solid;text-decoration-color:#000000;letter-spacing:normal;word-spacing:normal;text-transform:none;writing-mode:lr-tb;direction:ltr;text-orientation:mixed;dominant-baseline:auto;baseline-shift:baseline;text-anchor:start;white-space:normal;shape-padding:0;shape-margin:0;inline-size:0;clip-rule:nonzero;display:inline;overflow:visible;visibility:visible;isolation:auto;mix-blend-mode:normal;color-interpolation:sRGB;color-interpolation-filters:linearRGB;solid-color:#000000;solid-opacity:1;vector-effect:none;fill:#000000;fill-opacity:1;fill-rule:nonzero;stroke:none;stroke-width:0.138;stroke-linecap:butt;stroke-linejoin:miter;stroke-miterlimit:4;stroke-dasharray:none;stroke-dashoffset:0;stroke-opacity:1;color-rendering:auto;image-rendering:auto;shape-rendering:auto;text-rendering:auto;enable-background:accumulate;stop-color:#000000;stop-opacity:1" />
        <path
           id="path1046"
           d="m 29.021484,30.019531 -0.388672,0.07617 0.01172,0.06641 0.419922,2.173829 0.390625,-0.07422 z m -0.107422,0.16211 0.378907,1.970703 -0.119141,0.02148 -0.378906,-1.970703 z"
           style="color:#000000;font-style:normal;font-variant:normal;font-weight:normal;font-stretch:normal;font-size:2.82222px;line-height:1.25;font-family:go;-inkscape-font-specification:go;font-variant-ligatures:normal;font-variant-position:normal;font-variant-caps:normal;font-variant-numeric:normal;font-variant-alternates:normal;font-variant-east-asian:normal;font-feature-settings:normal;font-variation-settings:normal;text-indent:0;text-align:start;text-decoration:none;text-decoration-line:none;text-decoration-style:solid;text-decoration-color:#000000;letter-spacing:normal;word-spacing:normal;text-transform:none;writing-mode:lr-tb;direction:ltr;text-orientation:mixed;dominant-baseline:auto;baseline-shift:baseline;text-anchor:start;white-space:normal;shape-padding:0;shape-margin:0;inline-size:0;clip-rule:nonzero;display:inline;overflow:visible;visibility:visible;isolation:auto;mix-blend-mode:normal;color-interpolation:sRGB;color-interpolation-filters:linearRGB;solid-color:#000000;solid-opacity:1;vector-effect:none;fill:#000000;fill-opacity:1;fill-rule:nonzero;stroke:none;stroke-width:0.138;stroke-linecap:butt;stroke-linejoin:miter;stroke-miterlimit:4;stroke-dasharray:none;stroke-dashoffset:0;stroke-opacity:1;color-rendering:auto;image-rendering:auto;shape-rendering:auto;text-rendering:auto;enable-background:accumulate;stop-color:#000000;stop-opacity:1" />
      </g>
      <g
         style="opacity:1"
         id="g1048">
        <path
           id="path1050"
           d="m 27.952296,30.308489 0.25322,-0.05475 0.453162,2.095793 -0.25322,0.05475 z"
           style="color:#000000;font-style:normal;font-variant:normal;font-weight:normal;font-stretch:normal;font-size:2.82222px;line-height:1.25;font-family:go;-inkscape-font-specification:go;font-variant-ligatures:normal;font-variant-position:normal;font-variant-caps:normal;font-variant-numeric:normal;font-variant-alternates:normal;font-variant-east-asian:normal;font-feature-settings:normal;font-variation-settings:normal;text-indent:0;text-align:start;text-decoration:none;text-decoration-line:none;text-decoration-style:solid;text-decoration-color:#000000;letter-spacing:normal;word-spacing:normal;text-transform:none;writing-mode:lr-tb;direction:ltr;text-orientation:mixed;dominant-baseline:auto;baseline-shift:baseline;text-anchor:start;white-space:normal;shape-padding:0;shape-margin:0;inline-size:0;clip-rule:nonzero;display:inline;overflow:visible;visibility:visible;isolation:auto;mix-blend-mode:normal;color-interpolation:sRGB;color-interpolation-filters:linearRGB;solid-color:#000000;solid-opacity:1;vector-effect:none;fill:#000000;fill-opacity:1;fill-rule:nonzero;stroke:none;stroke-width:0.138;stroke-linecap:butt;stroke-linejoin:miter;stroke-miterlimit:4;stroke-dasharray:none;stroke-dashoffset:0;stroke-opacity:1;color-rendering:auto;image-rendering:auto;shape-rendering:auto;text-rendering:auto;enable-background:accumulate;stop-color:#000000;stop-opacity:1" />
        <path
           id="path1052"
           d="m 28.257812,30.171875 -0.386718,0.08398 0.01367,0.06641 0.46875,2.164062 0.386718,-0.08398 z m -0.105468,0.164063 0.425781,1.960937 -0.119141,0.02539 -0.423828,-1.960938 z"
           style="color:#000000;font-style:normal;font-variant:normal;font-weight:normal;font-stretch:normal;font-size:2.82222px;line-height:1.25;font-family:go;-inkscape-font-specification:go;font-variant-ligatures:normal;font-variant-position:normal;font-variant-caps:normal;font-variant-numeric:normal;font-variant-alternates:normal;font-variant-east-asian:normal;font-feature-settings:normal;font-variation-settings:normal;text-indent:0;text-align:start;text-decoration:none;text-decoration-line:none;text-decoration-style:solid;text-decoration-color:#000000;letter-spacing:normal;word-spacing:normal;text-transform:none;writing-mode:lr-tb;direction:ltr;text-orientation:mixed;dominant-baseline:auto;baseline-shift:baseline;text-anchor:start;white-space:normal;shape-padding:0;shape-margin:0;inline-size:0;clip-rule:nonzero;display:inline;overflow:visible;visibility:visible;isolation:auto;mix-blend-mode:normal;color-interpolation:sRGB;color-interpolation-filters:linearRGB;solid-color:#000000;solid-opacity:1;vector-effect:none;fill:#000000;fill-opacity:1;fill-rule:nonzero;stroke:none;stroke-width:0.138;stroke-linecap:butt;stroke-linejoin:miter;stroke-miterlimit:4;stroke-dasharray:none;stroke-dashoffset:0;stroke-opacity:1;color-rendering:auto;image-rendering:auto;shape-rendering:auto;text-rendering:auto;enable-background:accumulate;stop-color:#000000;stop-opacity:1" />
      </g>
      <g
         style="opacity:1"
         id="g1054">
        <path
           id="path1056"
           d="m 26.289208,30.712543 0.249775,-0.06339 0.04034,0.158947 c 0.01842,-0.02079 0.04327,-0.04984 0.07456,-0.08716 0.03062,-0.03621 0.06171,-0.06684 0.09326,-0.09191 0.03665,-0.0311 0.08044,-0.06022 0.131373,-0.08737 0.0507,-0.02803 0.11256,-0.05132 0.185581,-0.06985 0.134459,-0.03413 0.259738,-0.01853 0.375835,0.04679 0.116098,0.06532 0.191661,0.166989 0.22669,0.305008 0.0287,0.113089 0.02783,0.210463 -0.0026,0.292122 -0.03112,0.08278 -0.08657,0.155612 -0.166334,0.218508 -0.08066,0.06312 -0.182846,0.117963 -0.306566,0.164529 -0.12372,0.04657 -0.257694,0.09194 -0.401922,0.136126 l 0.0098,0.03873 c 0.01447,0.05699 0.03668,0.101582 0.06665,0.133787 0.02908,0.03243 0.06503,0.05458 0.107858,0.06646 0.04081,0.01144 0.08706,0.01441 0.138735,0.0089 0.05167,-0.0055 0.104669,-0.01519 0.158988,-0.02898 0.06589,-0.01673 0.137096,-0.04428 0.213609,-0.08265 0.07674,-0.03749 0.154114,-0.08366 0.232127,-0.138528 l 0.01336,-0.0034 0.06475,0.255117 c -0.04559,0.02579 -0.11265,0.05845 -0.201189,0.09798 -0.08854,0.03953 -0.177778,0.07071 -0.267715,0.09353 -0.105075,0.02667 -0.198607,0.04093 -0.280597,0.04278 -0.08265,0.003 -0.157787,-0.0092 -0.225398,-0.03663 -0.06649,-0.02673 -0.122682,-0.06886 -0.168566,-0.126405 -0.04588,-0.05755 -0.08103,-0.134405 -0.105435,-0.230574 z m 0.342996,0.303924 0.105425,0.415401 c 0.07545,-0.02389 0.164137,-0.0535 0.266061,-0.08885 0.101033,-0.03512 0.179679,-0.06882 0.235937,-0.101109 0.06693,-0.03879 0.117119,-0.08565 0.150568,-0.140577 0.03367,-0.05404 0.04091,-0.118906 0.0217,-0.194597 -0.02169,-0.08548 -0.0639,-0.143489 -0.126623,-0.174014 -0.06249,-0.02963 -0.146723,-0.031 -0.252689,-0.0041 -0.08816,0.02237 -0.164448,0.05974 -0.228879,0.112113 -0.06421,0.05326 -0.121373,0.111842 -0.171499,0.175745 z"
           style="color:#000000;font-style:normal;font-variant:normal;font-weight:normal;font-stretch:normal;font-size:2.82222px;line-height:1.25;font-family:go;-inkscape-font-specification:go;font-variant-ligatures:normal;font-variant-position:normal;font-variant-caps:normal;font-variant-numeric:normal;font-variant-alternates:normal;font-variant-east-asian:normal;font-feature-settings:normal;font-variation-settings:normal;text-indent:0;text-align:start;text-decoration:none;text-decoration-line:none;text-decoration-style:solid;text-decoration-color:#000000;letter-spacing:normal;word-spacing:normal;text-transform:none;writing-mode:lr-tb;direction:ltr;text-orientation:mixed;dominant-baseline:auto;baseline-shift:baseline;text-anchor:start;white-space:normal;shape-padding:0;shape-margin:0;inline-size:0;clip-rule:nonzero;display:inline;overflow:visible;visibility:visible;isolation:auto;mix-blend-mode:normal;color-interpolation:sRGB;color-interpolation-filters:linearRGB;solid-color:#000000;solid-opacity:1;vector-effect:none;fill:#000000;fill-opacity:1;fill-rule:nonzero;stroke:none;stroke-width:0.138;stroke-linecap:butt;stroke-linejoin:miter;stroke-miterlimit:4;stroke-dasharray:none;stroke-dashoffset:0;stroke-opacity:1;color-rendering:auto;image-rendering:auto;shape-rendering:auto;text-rendering:auto;enable-background:accumulate;stop-color:#000000;stop-opacity:1" />
        <path
           id="path1058"
           d="m 27.046875,30.404297 c -0.07737,0.01964 -0.143831,0.04447 -0.201172,0.07617 -0.05452,0.02906 -0.101455,0.06081 -0.142578,0.0957 -0.03056,0.02449 -0.05928,0.05547 -0.08789,0.08789 l -0.02539,-0.09961 -0.384766,0.09766 0.01758,0.06836 0.25586,1.011719 c 0.02614,0.10298 0.0653,0.188327 0.11914,0.255859 0.05277,0.06618 0.119969,0.117368 0.197266,0.148437 0.0775,0.03143 0.162956,0.04432 0.253906,0.04102 0.08835,-0.0022 0.186769,-0.01747 0.294922,-0.04492 0.09391,-0.02383 0.185375,-0.05659 0.277344,-0.09766 0.08961,-0.04001 0.157934,-0.07184 0.207031,-0.09961 l 0.04687,-0.02734 -0.0957,-0.373047 -0.0918,0.02344 -0.0098,0.0078 c -0.07535,0.05299 -0.14956,0.0971 -0.222656,0.132812 h -0.002 c -0.07301,0.03662 -0.139349,0.06293 -0.199219,0.07813 -0.05139,0.01304 -0.100251,0.02218 -0.148437,0.02734 -0.04477,0.0048 -0.08253,8.08e-4 -0.113281,-0.0078 -0.03112,-0.0086 -0.05358,-0.02191 -0.07422,-0.04492 h -0.002 v -0.002 c -0.01569,-0.01686 -0.02755,-0.04852 -0.03906,-0.08203 0.118121,-0.03741 0.233718,-0.07603 0.337891,-0.115234 0.128713,-0.04845 0.238515,-0.105231 0.326172,-0.173828 0.0879,-0.06931 0.151571,-0.152482 0.1875,-0.248047 0.03655,-0.09808 0.03696,-0.211421 0.0059,-0.333984 -0.03886,-0.153121 -0.128152,-0.273607 -0.259766,-0.347657 -0.130494,-0.07342 -0.27851,-0.09256 -0.427734,-0.05469 z m 0.03516,0.134765 c 0.119695,-0.03038 0.222518,-0.01816 0.324219,0.03906 0.100582,0.05659 0.162164,0.138802 0.193359,0.261719 0.0263,0.103614 0.02431,0.186711 0,0.251953 -0.02631,0.06999 -0.07289,0.131015 -0.144531,0.1875 -0.07366,0.05764 -0.170335,0.10961 -0.289062,0.154297 -0.122181,0.04599 -0.253465,0.09095 -0.396485,0.134765 l -0.0625,0.01953 0.02539,0.103515 c 0.0165,0.06499 0.04201,0.1191 0.08203,0.16211 0.03752,0.04184 0.08609,0.07081 0.140625,0.08594 0.05087,0.01426 0.105477,0.01796 0.164063,0.01172 0.05516,-0.0059 0.112679,-0.01672 0.169921,-0.03125 0.07192,-0.01826 0.146546,-0.04776 0.226563,-0.08789 v 0.002 c 0.05676,-0.02773 0.113034,-0.0651 0.169922,-0.101562 l 0.0293,0.115234 c -0.04053,0.02106 -0.08205,0.04262 -0.148438,0.07227 -0.08511,0.038 -0.17185,0.06803 -0.257812,0.08984 -0.101297,0.02571 -0.188491,0.03736 -0.263672,0.03906 h -0.002 c -0.07436,0.0027 -0.139541,-0.0078 -0.197266,-0.03125 -0.05569,-0.02238 -0.101624,-0.05656 -0.140625,-0.105469 -0.03792,-0.04756 -0.06912,-0.113766 -0.0918,-0.203125 l -0.240234,-0.947265 0.115234,-0.0293 0.05664,0.21875 0.08594,-0.09766 c 0.01915,-0.02162 0.04465,-0.05029 0.07617,-0.08789 0.02814,-0.03328 0.05659,-0.06027 0.08398,-0.08203 v -0.002 c 0.03218,-0.02731 0.0718,-0.05289 0.11914,-0.07813 l 0.002,-0.002 c 0.04406,-0.02436 0.101251,-0.04507 0.169922,-0.0625 z m -0.06641,0.123047 c -0.09671,0.02454 -0.183208,0.06595 -0.255859,0.125 -0.06785,0.05628 -0.12843,0.119665 -0.181641,0.1875 l 0.09766,0.0293 -0.113281,0.01758 0.002,0.01172 0.01367,0.164063 0.02148,-0.02734 0.08984,0.349609 0.06836,-0.02148 c 0.07626,-0.02414 0.165221,-0.05435 0.267579,-0.08984 0.103475,-0.03597 0.18569,-0.07164 0.248047,-0.107422 0.07484,-0.04337 0.135451,-0.09783 0.175781,-0.164062 0.04353,-0.07101 0.05166,-0.15798 0.0293,-0.246094 -0.02511,-0.09895 -0.07941,-0.180457 -0.16211,-0.220703 h -0.002 c -0.08344,-0.03956 -0.18387,-0.037 -0.298828,-0.0078 z m 0.0332,0.132813 c 0.09697,-0.02462 0.165484,-0.0197 0.207031,0 0.04275,0.0208 0.07157,0.05689 0.08984,0.128906 0.01588,0.06258 0.0092,0.103855 -0.01367,0.140625 v 0.002 c -0.02657,0.04363 -0.06794,0.08103 -0.126953,0.115235 -0.05016,0.02879 -0.126018,0.06143 -0.224609,0.0957 -0.07443,0.02581 -0.133349,0.04486 -0.19336,0.06445 l -0.07813,-0.306641 c 0.04191,-0.05014 0.08681,-0.09761 0.138672,-0.140625 0.05621,-0.04569 0.121574,-0.07941 0.201172,-0.09961 z"
           style="color:#000000;font-style:normal;font-variant:normal;font-weight:normal;font-stretch:normal;font-size:2.82222px;line-height:1.25;font-family:go;-inkscape-font-specification:go;font-variant-ligatures:normal;font-variant-position:normal;font-variant-caps:normal;font-variant-numeric:normal;font-variant-alternates:normal;font-variant-east-asian:normal;font-feature-settings:normal;font-variation-settings:normal;text-indent:0;text-align:start;text-decoration:none;text-decoration-line:none;text-decoration-style:solid;text-decoration-color:#000000;letter-spacing:normal;word-spacing:normal;text-transform:none;writing-mode:lr-tb;direction:ltr;text-orientation:mixed;dominant-baseline:auto;baseline-shift:baseline;text-anchor:start;white-space:normal;shape-padding:0;shape-margin:0;inline-size:0;clip-rule:nonzero;display:inline;overflow:visible;visibility:visible;isolation:auto;mix-blend-mode:normal;color-interpolation:sRGB;color-interpolation-filters:linearRGB;solid-color:#000000;solid-opacity:1;vector-effect:none;fill:#000000;fill-opacity:1;fill-rule:nonzero;stroke:none;stroke-width:0.138;stroke-linecap:butt;stroke-linejoin:miter;stroke-miterlimit:4;stroke-dasharray:none;stroke-dashoffset:0;stroke-opacity:1;color-rendering:auto;image-rendering:auto;shape-rendering:auto;text-rendering:auto;enable-background:accumulate;stop-color:#000000;stop-opacity:1" />
      </g>
      <g
         style="opacity:1"
         id="g1060">
        <path
           id="path1062"
           d="m 24.740735,31.992463 c -0.0378,-0.122937 -0.05426,-0.238981 -0.04937,-0.34813 0.004,-0.108879 0.02516,-0.205732 0.06348,-0.290559 0.04101,-0.08854 0.09344,-0.161849 0.157285,-0.219924 0.06411,-0.05719 0.140946,-0.09956 0.230518,-0.127105 0.08342,-0.02565 0.15941,-0.03796 0.227967,-0.03693 0.06829,1.49e-4 0.137854,0.0076 0.208705,0.02233 l -0.0053,-0.07335 0.231824,-0.07128 0.630175,2.049533 -0.24763,0.07614 -0.225178,-0.732352 c -0.05182,0.07841 -0.111272,0.147628 -0.178357,0.207661 -0.06681,0.06091 -0.148955,0.106354 -0.246426,0.136321 -0.173868,0.05346 -0.331375,0.02884 -0.47252,-0.07385 -0.142023,-0.102425 -0.25043,-0.275256 -0.325219,-0.518495 z m 0.253508,-0.08516 c 0.054,0.175624 0.123883,0.299749 0.209648,0.372376 0.08604,0.0735 0.193595,0.09041 0.322679,0.05072 0.07201,-0.02214 0.14003,-0.06036 0.204072,-0.114648 0.06431,-0.05341 0.120522,-0.114427 0.168625,-0.183042 l -0.259198,-0.842996 c -0.07997,-0.01001 -0.14687,-0.01347 -0.200703,-0.01037 -0.05471,0.0033 -0.11412,0.01487 -0.178221,0.03461 -0.136987,0.04212 -0.230347,0.119844 -0.280082,0.233171 -0.05034,0.114477 -0.04595,0.267869 0.01318,0.460177 z"
           style="color:#000000;font-style:normal;font-variant:normal;font-weight:normal;font-stretch:normal;font-size:2.82222px;line-height:1.25;font-family:go;-inkscape-font-specification:go;font-variant-ligatures:normal;font-variant-position:normal;font-variant-caps:normal;font-variant-numeric:normal;font-variant-alternates:normal;font-variant-east-asian:normal;font-feature-settings:normal;font-variation-settings:normal;text-indent:0;text-align:start;text-decoration:none;text-decoration-line:none;text-decoration-style:solid;text-decoration-color:#000000;letter-spacing:normal;word-spacing:normal;text-transform:none;writing-mode:lr-tb;direction:ltr;text-orientation:mixed;dominant-baseline:auto;baseline-shift:baseline;text-anchor:start;white-space:normal;shape-padding:0;shape-margin:0;inline-size:0;clip-rule:nonzero;display:inline;overflow:visible;visibility:visible;isolation:auto;mix-blend-mode:normal;color-interpolation:sRGB;color-interpolation-filters:linearRGB;solid-color:#000000;solid-opacity:1;vector-effect:none;fill:#000000;fill-opacity:1;fill-rule:nonzero;stroke:none;stroke-width:0.138;stroke-linecap:butt;stroke-linejoin:miter;stroke-miterlimit:4;stroke-dasharray:none;stroke-dashoffset:0;stroke-opacity:1;color-rendering:auto;image-rendering:auto;shape-rendering:auto;text-rendering:auto;enable-background:accumulate;stop-color:#000000;stop-opacity:1" />
        <path
           id="path1064"
           d="m 25.851562,30.761719 -0.349609,0.107422 0.002,0.04492 c -0.04437,-0.0056 -0.08916,-0.01358 -0.132812,-0.01367 -0.07758,-0.0012 -0.159304,0.01373 -0.248047,0.04102 -0.09798,0.03013 -0.185899,0.07647 -0.257813,0.140625 -0.07131,0.06487 -0.129494,0.146477 -0.173828,0.242188 v 0.002 c -0.04226,0.09354 -0.0639,0.198959 -0.06836,0.314453 -0.0042,0.09474 0.01618,0.196974 0.04102,0.298828 l -0.01172,0.002 0.02148,0.07227 c 0.0776,0.252366 0.193182,0.438513 0.351563,0.552734 0.15665,0.113975 0.342458,0.142634 0.533203,0.08398 0.10521,-0.03235 0.196717,-0.08259 0.271484,-0.150391 0.0387,-0.03463 0.06967,-0.0789 0.103516,-0.119141 l 0.208984,0.677735 0.378906,-0.115235 z m -0.08984,0.171875 0.58789,1.917968 -0.115234,0.03516 -0.248047,-0.806641 -0.08008,0.123047 c -0.04874,0.07374 -0.105429,0.137394 -0.167969,0.193359 v 0.002 c -0.05863,0.05345 -0.131551,0.09368 -0.220703,0.121093 -0.156991,0.04827 -0.284516,0.02696 -0.410156,-0.06445 h -0.002 c -0.125666,-0.09063 -0.226845,-0.24831 -0.298828,-0.482422 -0.03587,-0.116656 -0.05135,-0.22612 -0.04687,-0.326172 0.0037,-0.101457 0.02446,-0.188118 0.05859,-0.263672 0.03769,-0.08137 0.08425,-0.145987 0.140625,-0.197265 0.0563,-0.05023 0.121958,-0.08832 0.203125,-0.113281 0.0781,-0.02401 0.147495,-0.0341 0.207032,-0.0332 h 0.002 c 0.06337,1.38e-4 0.12679,0.0076 0.193359,0.02148 l 0.08984,0.01758 -0.0078,-0.109375 z m -0.326172,0.177734 c -0.06133,0.0037 -0.126979,0.01607 -0.195313,0.03711 -0.15136,0.04654 -0.264427,0.13969 -0.322265,0.271484 -0.06008,0.136622 -0.05211,0.30657 0.0098,0.507812 0.05623,0.182879 0.131175,0.31856 0.232422,0.404297 0.103498,0.08746 0.242789,0.10871 0.386719,0.06445 0.08166,-0.02511 0.158273,-0.06936 0.228516,-0.128906 0.06852,-0.05707 0.128397,-0.122151 0.179687,-0.195312 l 0.01953,-0.02734 -0.28125,-0.917969 -0.04492,-0.0059 c -0.08273,-0.01036 -0.152844,-0.01322 -0.212891,-0.0098 z m 0.0078,0.136719 c 0.03671,-0.0021 0.08999,0.0027 0.144532,0.0078 l 0.234375,0.757813 c -0.04061,0.05401 -0.08266,0.105167 -0.134766,0.148437 h -0.002 v 0.002 c -0.05784,0.04904 -0.117333,0.08044 -0.179688,0.09961 -0.11353,0.03491 -0.189398,0.02134 -0.257812,-0.03711 -0.07028,-0.05952 -0.135731,-0.171474 -0.1875,-0.339843 -0.05638,-0.183374 -0.05623,-0.319778 -0.01563,-0.41211 0.04163,-0.09486 0.113716,-0.157612 0.236328,-0.195312 0.05987,-0.01844 0.114016,-0.02832 0.162109,-0.03125 z"
           style="color:#000000;font-style:normal;font-variant:normal;font-weight:normal;font-stretch:normal;font-size:2.82222px;line-height:1.25;font-family:go;-inkscape-font-specification:go;font-variant-ligatures:normal;font-variant-position:normal;font-variant-caps:normal;font-variant-numeric:normal;font-variant-alternates:normal;font-variant-east-asian:normal;font-feature-settings:normal;font-variation-settings:normal;text-indent:0;text-align:start;text-decoration:none;text-decoration-line:none;text-decoration-style:solid;text-decoration-color:#000000;letter-spacing:normal;word-spacing:normal;text-transform:none;writing-mode:lr-tb;direction:ltr;text-orientation:mixed;dominant-baseline:auto;baseline-shift:baseline;text-anchor:start;white-space:normal;shape-padding:0;shape-margin:0;inline-size:0;clip-rule:nonzero;display:inline;overflow:visible;visibility:visible;isolation:auto;mix-blend-mode:normal;color-interpolation:sRGB;color-interpolation-filters:linearRGB;solid-color:#000000;solid-opacity:1;vector-effect:none;fill:#000000;fill-opacity:1;fill-rule:nonzero;stroke:none;stroke-width:0.138;stroke-linecap:butt;stroke-linejoin:miter;stroke-miterlimit:4;stroke-dasharray:none;stroke-dashoffset:0;stroke-opacity:1;color-rendering:auto;image-rendering:auto;shape-rendering:auto;text-rendering:auto;enable-background:accumulate;stop-color:#000000;stop-opacity:1" />
      </g>
      <g
         style="opacity:1"
         id="g1066">
        <path
           id="path1068"
           d="m 23.244714,32.168111 c -0.04751,-0.132287 -0.03158,-0.260515 0.0478,-0.384685 0.07851,-0.123859 0.212441,-0.219792 0.401792,-0.287798 0.107213,-0.03851 0.210282,-0.06137 0.309208,-0.06859 0.09837,-0.0061 0.183253,-0.0048 0.254645,0.0037 l 0.09828,0.273652 -0.01297,0.0047 c -0.09776,-0.03029 -0.199967,-0.04581 -0.306632,-0.04654 -0.106354,1.27e-4 -0.202762,0.01572 -0.289224,0.04677 -0.107213,0.03851 -0.18487,0.08592 -0.232972,0.142241 -0.0481,0.05632 -0.0588,0.12166 -0.0321,0.196019 0.02049,0.05707 0.05245,0.0944 0.09586,0.111992 0.04341,0.0176 0.115536,0.02 0.216367,0.0072 0.03738,-0.0047 0.08603,-0.01189 0.145959,-0.02167 0.05906,-0.0095 0.113677,-0.01643 0.163852,-0.02078 0.139209,-0.01193 0.247262,0.0049 0.324158,0.0505 0.07634,0.04677 0.131592,0.117705 0.165751,0.212815 0.02143,0.05966 0.02951,0.120208 0.02424,0.181643 -0.0061,0.06175 -0.02682,0.122376 -0.06206,0.181889 -0.03383,0.05803 -0.08372,0.112065 -0.149695,0.162116 -0.06653,0.05123 -0.146047,0.09345 -0.238562,0.126678 -0.08646,0.03105 -0.17767,0.05161 -0.273624,0.06167 -0.09651,0.01123 -0.179594,0.01227 -0.249257,0.0031 l -0.09362,-0.260682 0.01297,-0.0047 c 0.07871,0.02347 0.168183,0.03477 0.268418,0.03391 0.100545,7e-6 0.193617,-0.01536 0.279214,-0.0461 0.08906,-0.03199 0.158066,-0.07629 0.207033,-0.132925 0.04928,-0.05577 0.06181,-0.117371 0.03758,-0.184812 -0.02143,-0.05966 -0.05616,-0.09794 -0.10421,-0.114852 -0.04718,-0.01722 -0.114824,-0.02075 -0.202933,-0.01058 -0.04869,0.0058 -0.102561,0.01344 -0.161622,0.02291 -0.05993,0.0098 -0.110032,0.01706 -0.150316,0.02177 -0.122581,0.01474 -0.2259,0.0016 -0.309956,-0.03949 -0.08437,-0.04193 -0.145493,-0.115642 -0.183378,-0.221126 z"
           style="color:#000000;font-style:normal;font-variant:normal;font-weight:normal;font-stretch:normal;font-size:2.82222px;line-height:1.25;font-family:go;-inkscape-font-specification:go;font-variant-ligatures:normal;font-variant-position:normal;font-variant-caps:normal;font-variant-numeric:normal;font-variant-alternates:normal;font-variant-east-asian:normal;font-feature-settings:normal;font-variation-settings:normal;text-indent:0;text-align:start;text-decoration:none;text-decoration-line:none;text-decoration-style:solid;text-decoration-color:#000000;letter-spacing:normal;word-spacing:normal;text-transform:none;writing-mode:lr-tb;direction:ltr;text-orientation:mixed;dominant-baseline:auto;baseline-shift:baseline;text-anchor:start;white-space:normal;shape-padding:0;shape-margin:0;inline-size:0;clip-rule:nonzero;display:inline;overflow:visible;visibility:visible;isolation:auto;mix-blend-mode:normal;color-interpolation:sRGB;color-interpolation-filters:linearRGB;solid-color:#000000;solid-opacity:1;vector-effect:none;fill:#000000;fill-opacity:1;fill-rule:nonzero;stroke:none;stroke-width:0.138;stroke-linecap:butt;stroke-linejoin:miter;stroke-miterlimit:4;stroke-dasharray:none;stroke-dashoffset:0;stroke-opacity:1;color-rendering:auto;image-rendering:auto;shape-rendering:auto;text-rendering:auto;enable-background:accumulate;stop-color:#000000;stop-opacity:1" />
        <path
           id="path1070"
           d="m 23.998047,31.357422 c -0.106003,0.0077 -0.213897,0.03389 -0.326172,0.07422 -0.199038,0.07149 -0.348618,0.174231 -0.4375,0.314453 -0.08485,0.132732 -0.09818,0.28165 -0.05273,0.425781 0.0021,0.0066 -0.0043,0.01296 -0.002,0.01953 0.04241,0.118082 0.115465,0.209401 0.216796,0.259766 h 0.002 c 0.09887,0.0483 0.215677,0.06274 0.347656,0.04687 0.04134,-0.0048 0.09271,-0.0137 0.152344,-0.02344 0.05831,-0.0094 0.112596,-0.01582 0.160156,-0.02148 0.08231,-0.0095 0.139846,-0.0051 0.169922,0.0059 h 0.002 c 0.02711,0.0095 0.04592,0.02805 0.0625,0.07422 0.01715,0.04774 0.01103,0.07401 -0.02539,0.115235 -0.03963,0.04584 -0.09708,0.08431 -0.177734,0.113281 -0.07751,0.02784 -0.162347,0.04297 -0.25586,0.04297 h -0.002 c -0.0947,8.12e-4 -0.177242,-0.01014 -0.248047,-0.03125 l -0.02148,-0.0059 -0.09961,0.03516 0.132812,0.365235 0.04102,0.0059 c 0.07736,0.01018 0.165081,0.0078 0.265625,-0.0039 0.101139,-0.0106 0.197189,-0.03146 0.289062,-0.06445 0.09818,-0.03526 0.184749,-0.08046 0.257813,-0.136719 0.07088,-0.05378 0.126763,-0.11511 0.166015,-0.181641 l 0.002,-0.002 c 0.0389,-0.06634 0.06319,-0.137279 0.07031,-0.208984 v -0.002 c 0.0061,-0.07126 -0.0028,-0.140541 -0.02734,-0.208985 -0.03847,-0.107113 -0.105112,-0.194744 -0.195312,-0.25 -0.09488,-0.05626 -0.217498,-0.0732 -0.365235,-0.06055 h -0.002 c -0.05216,0.0045 -0.107515,0.01176 -0.167968,0.02148 -0.0594,0.0097 -0.106581,0.01699 -0.142579,0.02148 h -0.002 c -0.09568,0.01215 -0.160862,0.0065 -0.18164,-0.002 -0.02285,-0.0093 -0.04062,-0.02766 -0.05664,-0.07227 -0.02037,-0.05674 -0.01474,-0.08683 0.01953,-0.126954 0.0367,-0.04298 0.104848,-0.08705 0.205078,-0.123046 0.07802,-0.02802 0.165964,-0.0409 0.265625,-0.04102 0.100278,6.89e-4 0.194027,0.01473 0.285157,0.04297 l 0.02344,0.0059 0.09961,-0.03516 -0.136718,-0.378906 -0.04297,-0.0059 C 24.188611,31.352123 24.101379,31.35117 24,31.357422 Z m 0.0098,0.138672 c 0.07922,-0.0049 0.142257,-7.79e-4 0.201172,0.0039 l 0.04492,0.126953 c -0.07147,-0.01446 -0.141617,-0.03269 -0.216797,-0.0332 -0.113047,1.35e-4 -0.217596,0.0167 -0.3125,0.05078 -0.114195,0.04101 -0.202218,0.09244 -0.261718,0.16211 -0.06193,0.07252 -0.07795,0.171694 -0.04492,0.263671 0.02497,0.06953 0.07079,0.126415 0.134765,0.152344 0.06605,0.02678 0.144022,0.02517 0.25,0.01172 0.03876,-0.0048 0.08798,-0.01162 0.148438,-0.02148 0.05767,-0.0093 0.111965,-0.01535 0.160156,-0.01953 0.130682,-0.0112 0.222337,0.0061 0.28125,0.04102 0.06248,0.03828 0.106871,0.09267 0.136719,0.175781 0.01827,0.05088 0.02591,0.100737 0.02148,0.152344 -0.0051,0.05098 -0.02193,0.102276 -0.05273,0.154297 h -0.002 c -0.02834,0.04862 -0.0706,0.0949 -0.13086,0.140625 v 0.002 c -0.05999,0.04619 -0.133853,0.08404 -0.220703,0.115234 -0.08105,0.02911 -0.167043,0.04908 -0.257812,0.05859 -0.07616,0.0089 -0.135793,0.008 -0.191407,0.0039 l -0.04297,-0.117187 c 0.05892,0.0098 0.115201,0.02205 0.18164,0.02148 0.107579,7e-6 0.209048,-0.01518 0.302735,-0.04883 0.09746,-0.03501 0.176076,-0.08492 0.234375,-0.152344 0.06213,-0.07031 0.08209,-0.166761 0.05078,-0.253906 -0.02627,-0.07315 -0.0775,-0.131972 -0.146484,-0.15625 -0.06395,-0.02291 -0.139293,-0.02442 -0.232422,-0.01367 h -0.002 c -0.04981,0.0059 -0.104248,0.01189 -0.164063,0.02148 -0.05923,0.0097 -0.10777,0.01696 -0.146484,0.02148 -0.113184,0.01361 -0.202241,0.0026 -0.271485,-0.03125 -0.0674,-0.0335 -0.115077,-0.09071 -0.148437,-0.183594 -0.04106,-0.114318 -0.02901,-0.214682 0.04102,-0.324219 0.06814,-0.107496 0.18557,-0.195238 0.365235,-0.259765 0.10215,-0.03669 0.199166,-0.05775 0.291015,-0.06445 z"
           style="color:#000000;font-style:normal;font-variant:normal;font-weight:normal;font-stretch:normal;font-size:2.82222px;line-height:1.25;font-family:go;-inkscape-font-specification:go;font-variant-ligatures:normal;font-variant-position:normal;font-variant-caps:normal;font-variant-numeric:normal;font-variant-alternates:normal;font-variant-east-asian:normal;font-feature-settings:normal;font-variation-settings:normal;text-indent:0;text-align:start;text-decoration:none;text-decoration-line:none;text-decoration-style:solid;text-decoration-color:#000000;letter-spacing:normal;word-spacing:normal;text-transform:none;writing-mode:lr-tb;direction:ltr;text-orientation:mixed;dominant-baseline:auto;baseline-shift:baseline;text-anchor:start;white-space:normal;shape-padding:0;shape-margin:0;inline-size:0;clip-rule:nonzero;display:inline;overflow:visible;visibility:visible;isolation:auto;mix-blend-mode:normal;color-interpolation:sRGB;color-interpolation-filters:linearRGB;solid-color:#000000;solid-opacity:1;vector-effect:none;fill:#000000;fill-opacity:1;fill-rule:nonzero;stroke:none;stroke-width:0.138;stroke-linecap:butt;stroke-linejoin:miter;stroke-miterlimit:4;stroke-dasharray:none;stroke-dashoffset:0;stroke-opacity:1;color-rendering:auto;image-rendering:auto;shape-rendering:auto;text-rendering:auto;enable-background:accumulate;stop-color:#000000;stop-opacity:1" />
      </g>
    </g>
    <path
       id="path971"
       d="m 63.236392,71.190183 c 0.0084,-0.161517 -0.03509,-0.324192 -0.123211,-0.460969 -0.02849,-0.04413 -0.09344,-0.119835 -0.132416,-0.154219 -0.122951,-0.108492 -0.27336,-0.173377 -0.435975,-0.188076 -0.303971,-0.02746 -0.594092,0.128044 -0.743764,0.398681 -0.110347,0.199519 -0.125472,0.444622 -0.04062,0.658674 0.08319,0.209855 0.259853,0.375751 0.471845,0.443078 0.05032,0.01595 0.118269,0.02995 0.167372,0.03441 0.0512,0.0047 0.15114,-3.8e-5 0.202122,-0.0095 0.136706,-0.02516 0.259077,-0.08359 0.363389,-0.173432 0.07404,-0.06377 0.09359,-0.09061 0.08388,-0.115154 -0.0037,-0.0099 -0.0074,-0.01178 -0.131922,-0.06752 -0.122882,-0.05513 -0.128639,-0.05807 -0.146422,-0.07465 -0.01024,-0.0095 -0.02471,-0.02698 -0.03224,-0.03889 -0.0092,-0.01442 -0.01476,-0.02039 -0.01683,-0.01788 -0.0015,0.0021 -0.01252,0.01854 -0.02408,0.03663 -0.0407,0.06372 -0.09672,0.117551 -0.149684,0.143776 -0.05896,0.02919 -0.136149,0.03555 -0.211777,0.01747 -0.119517,-0.0286 -0.199817,-0.0834 -0.243643,-0.166182 l -0.01064,-0.0201 -0.02481,-0.0034 c -0.034,-0.0047 -0.08766,-0.02812 -0.120002,-0.0524 -0.03827,-0.02869 -0.04002,-0.03142 -0.03207,-0.04983 0.0148,-0.03431 0.0581,-0.08009 0.113653,-0.120275 l 0.03669,-0.02655 0.0052,-0.02877 c 0.01066,-0.05837 0.01967,-0.08638 0.05022,-0.157133 0.03062,-0.07074 0.04484,-0.09646 0.08002,-0.144259 l 0.01731,-0.02353 -0.006,-0.0449 c -0.0088,-0.06801 -0.0052,-0.13088 0.0097,-0.1652 0.008,-0.01838 0.01114,-0.019 0.05828,-0.01076 0.03981,0.0069 0.09367,0.02997 0.120369,0.05157 l 0.01948,0.01573 0.02194,-0.006 c 0.0726,-0.01996 0.149879,-0.01029 0.226149,0.0283 0.121955,0.06167 0.185005,0.136287 0.202845,0.239995 0.0085,0.0494 0.0042,0.114389 -0.01132,0.174846 -0.0121,0.04658 -0.01322,0.04287 0.01187,0.03709 0.02218,-0.005 0.06786,-0.0042 0.08161,0.0016 0.01781,0.0074 0.06594,-0.06724 0.07159,-0.111191 0.0052,-0.04065 -0.0045,-0.07532 -0.03295,-0.117478 -0.01816,-0.02687 -0.02941,-0.05831 -0.03193,-0.08876 -0.0044,-0.05057 0.02516,-0.09848 0.04169,-0.06813 0.0019,0.0035 0.0057,0.01746 0.0094,0.03083 0.0094,0.04211 0.02577,0.07229 0.05944,0.111442 0.03575,0.04162 0.04843,0.06843 0.05081,0.107383 0.0026,0.04064 -0.0042,0.06851 -0.02825,0.118141 -0.01143,0.02364 -0.02361,0.04669 -0.02702,0.05125 l -0.0063,0.0083 0.07129,0.03082 c 0.04243,0.01837 0.07452,0.03058 0.07929,0.03016 0.01045,-8.71e-4 0.02562,-0.0135 0.03055,-0.02543 0.0024,-0.0052 0.0048,-0.02299 0.0055,-0.03951 z m -0.201911,-0.100414 c -0.0027,-0.01173 -0.01371,-0.01113 -0.01903,9.59e-4 -0.0024,0.0053 -0.0029,0.01291 -9.93e-4,0.0167 0.003,0.0058 0.0045,0.0063 0.01093,0.0025 0.0093,-0.0056 0.0112,-0.0097 0.0089,-0.02012 z m -0.02802,0.04971 c -0.0018,-0.01072 -0.01534,-0.0062 -0.02104,0.007 -0.0055,0.0128 -0.0021,0.01838 0.0095,0.01389 0.0087,-0.0035 0.01309,-0.01129 0.01152,-0.02087 z m 0.04297,-0.113241 c -0.0042,-0.0091 -0.01444,-0.0082 -0.01866,0.0015 -0.0042,0.01 1.36e-4,0.02293 0.0081,0.02326 0.0075,4.72e-4 0.01472,-0.01659 0.01064,-0.02473 z m -0.0057,-0.05775 c -0.0013,-0.0032 -0.0058,-0.0072 -0.0101,-0.0091 -0.0057,-0.0024 -0.0085,-0.0014 -0.01109,0.0044 -0.0042,0.0099 -6.54e-4,0.01835 0.0086,0.02273 0.0057,0.0024 0.0086,0.0014 0.01109,-0.0044 0.0019,-0.0042 0.0021,-0.01032 8.62e-4,-0.01351 z m -0.02972,-0.05438 c -0.005,-0.0058 -0.0082,-0.007 -0.0126,-0.0053 -0.0084,0.0032 -0.0056,0.01584 0.0053,0.0219 0.0067,0.0041 0.009,0.0036 0.01149,-0.0021 0.0019,-0.0042 2.61e-4,-0.01 -0.0039,-0.01456 z m -0.02684,-0.04492 c -0.0092,-0.0082 -0.01711,-0.0032 -0.0133,0.0083 0.0042,0.01288 0.01147,0.01521 0.01582,0.0051 0.0024,-0.0053 0.0015,-0.01006 -0.0025,-0.01349 z m -0.01405,-0.04194 c -0.0017,-0.0021 -0.0052,-0.0028 -0.0082,-0.0017 -0.0062,0.0024 -0.0059,0.01399 1.43e-4,0.01946 0.0046,0.0038 0.01175,-0.01252 0.008,-0.01782 z"
       style="font-style:normal;font-variant:normal;font-weight:normal;font-stretch:normal;font-size:2.82222px;line-height:1.25;font-family:'Bangla Sangam MN';-inkscape-font-specification:'Bangla Sangam MN';font-variant-ligatures:normal;font-variant-caps:normal;font-variant-numeric:normal;font-variant-east-asian:normal;fill:#000000;stroke:#000000;stroke-width:0.000524118;stroke-opacity:1" />
  </g>
</svg>
